<?xml version="1.0" encoding="utf-8"?>
<!-- Generator: Adobe Illustrator 16.0.0, SVG Export Plug-In . SVG Version: 6.00 Build 0)  -->
<!DOCTYPE svg PUBLIC "-//W3C//DTD SVG 1.1//EN" "http://www.w3.org/Graphics/SVG/1.1/DTD/svg11.dtd">
<svg version="1.1" id="Layer_1" xmlns="http://www.w3.org/2000/svg" xmlns:xlink="http://www.w3.org/1999/xlink" x="0px" y="0px"
	 width="64px" height="64px" viewBox="274 274 64 64" enable-background="new 274 274 64 64" xml:space="preserve">
<g>
	<g>
		<path fill="#FAF9FB" stroke="#231F20" stroke-width="2" stroke-miterlimit="10" d="M317.51,294.185c0,0,2.902-11.144-7.013-13.8
			c-9.918-2.655-18.914,5.563-18.914,5.563s-15.274,14.867-5.18,33.242c10.088,18.371,29.226,16.486,38.059,11.731
			c8.835-4.754,3.785-17.397-5.724-21.59C309.232,305.142,317.51,294.185,317.51,294.185z M322.736,318.852
			c1.828,3.166,1.046,7.037-1.744,8.648c-2.793,1.612-6.537,0.354-8.365-2.812c-1.827-3.167-1.047-7.04,1.746-8.652
			C317.163,314.426,320.908,315.686,322.736,318.852z"/>
	</g>
	<path fill="#F05A37" stroke="#231F20" stroke-width="2" stroke-miterlimit="10" d="M311.427,285.855
		c1.178,2.04,0.481,4.65-1.562,5.83c-2.04,1.178-4.652,0.478-5.83-1.562c-1.178-2.04-0.478-4.651,1.562-5.829
		C307.641,283.114,310.249,283.815,311.427,285.855z"/>
	<path fill="#FFCF63" stroke="#231F20" stroke-width="2" stroke-miterlimit="10" d="M300.274,289.879
		c1.18,2.042,0.482,4.652-1.561,5.832c-2.04,1.178-4.651,0.478-5.831-1.565c-1.176-2.037-0.475-4.646,1.564-5.824
		C296.491,287.143,299.098,287.841,300.274,289.879z"/>
	<path fill="#61C4B7" stroke="#231F20" stroke-width="2" stroke-miterlimit="10" d="M294.402,300.613
		c1.179,2.042,0.481,4.65-1.562,5.83c-2.04,1.178-4.65,0.48-5.83-1.562c-1.178-2.04-0.478-4.652,1.562-5.83
		C290.615,297.871,293.224,298.573,294.402,300.613z"/>
	<path fill="#60BA46" stroke="#231F20" stroke-width="2" stroke-miterlimit="10" d="M295.048,312.005
		c1.179,2.043,0.479,4.652-1.562,5.83c-2.04,1.178-4.65,0.48-5.83-1.562c-1.178-2.04-0.478-4.652,1.562-5.83
		C291.259,309.266,293.87,309.966,295.048,312.005z"/>
	<path fill="#BC569F" stroke="#231F20" stroke-width="2" stroke-miterlimit="10" d="M303.071,320.849
		c1.178,2.04,0.481,4.649-1.562,5.829c-2.04,1.178-4.649,0.478-5.827-1.562c-1.178-2.041-0.48-4.651,1.56-5.829
		C299.284,318.107,301.894,318.809,303.071,320.849z"/>
</g>
</svg>
