<?xml version="1.0" encoding="utf-8"?>
<!-- Generator: Adobe Illustrator 16.0.0, SVG Export Plug-In . SVG Version: 6.00 Build 0)  -->
<!DOCTYPE svg PUBLIC "-//W3C//DTD SVG 1.1//EN" "http://www.w3.org/Graphics/SVG/1.1/DTD/svg11.dtd">
<svg version="1.1" id="Layer_6" xmlns="http://www.w3.org/2000/svg" xmlns:xlink="http://www.w3.org/1999/xlink" x="0px" y="0px"
	 width="57px" height="57px" viewBox="0 0 57 57" enable-background="new 0 0 57 57" xml:space="preserve">
<defs>
	<path id="SVGID_1_" d="M56.5,46.625c0,5.438-4.407,9.842-9.843,9.842H10.344c-5.437,0-9.844-4.404-9.844-9.842V10.312
		c0-5.437,4.408-9.844,9.844-9.844h36.313c5.436,0,9.843,4.407,9.843,9.844V46.625z"/>
</defs>
<clipPath id="SVGID_2_">
	<use xlink:href="#SVGID_1_"  overflow="visible"/>
</clipPath>
<g id="XMLID_3_" clip-path="url(#SVGID_2_)">
	<g>
		<path fill="#E5F8FA" d="M35.971,32.347l3.111,1.674c-1.052,1.951-2.631,3.574-4.547,4.68l-1.763-3.064
			C34.121,34.858,35.231,33.72,35.971,32.347z"/>
		<path fill="#DAF3FC" d="M32.772,35.636l1.763,3.064c-1.749,1.004-3.773,1.578-5.933,1.578v-3.531
			C30.122,36.747,31.544,36.343,32.772,35.636z"/>
		<path fill="#E0F1FB" d="M28.602,36.747v3.531c-2.041,0-3.962-0.512-5.641-1.42l1.675-3.109
			C25.816,36.386,27.167,36.747,28.602,36.747z"/>
		<path fill="#EAE6F3" d="M24.636,35.749l-1.675,3.109c-1.951-1.049-3.574-2.629-4.677-4.547l3.063-1.76
			C22.125,33.899,23.265,35.011,24.636,35.749z"/>
		<path fill="#F7EBF5" d="M21.348,32.552l-3.063,1.76c-1.007-1.744-1.582-3.773-1.582-5.931h3.534
			C20.236,29.899,20.642,31.323,21.348,32.552z"/>
		<path fill="#FFE9F0" d="M18.122,22.741l3.112,1.673c-0.637,1.181-0.998,2.531-0.998,3.967h-3.534
			C16.703,26.339,17.216,24.417,18.122,22.741z"/>
		<path fill="#FFEBF3" d="M22.67,18.062l1.761,3.063c-1.347,0.776-2.458,1.917-3.197,3.288l-3.112-1.673
			C19.174,20.788,20.754,19.166,22.67,18.062z"/>
		<path fill="#FFEAE1" d="M28.602,16.48v3.534c-1.518,0-2.942,0.405-4.171,1.111l-1.761-3.063
			C24.417,17.056,26.443,16.48,28.602,16.48z"/>
		<path fill="#FFF8EF" d="M34.243,17.901l-1.676,3.111c-1.18-0.637-2.53-0.998-3.965-0.998V16.48
			C30.644,16.48,32.565,16.994,34.243,17.901z"/>
		<path fill="#FFFFFA" d="M38.921,22.448l-3.064,1.763c-0.775-1.348-1.916-2.458-3.289-3.198l1.676-3.111
			C36.192,18.953,37.815,20.532,38.921,22.448z"/>
		<path fill="#FCFBEE" d="M40.501,28.38H36.97c0-1.519-0.404-2.943-1.113-4.17l3.064-1.763C39.927,24.195,40.501,26.22,40.501,28.38
			z"/>
		<path fill="#F3F7EA" d="M36.97,28.38h3.531c0,2.041-0.513,3.96-1.419,5.64l-3.111-1.674C36.608,31.167,36.97,29.815,36.97,28.38z"
			/>
		<path fill="#E5F1D7" d="M40.501,28.38h3.61c0,2.662-0.668,5.164-1.849,7.353l-3.181-1.713
			C39.988,32.341,40.501,30.421,40.501,28.38z"/>
		<path fill="#CFE7C2" d="M44.111,28.38h3.582c0,3.275-0.825,6.357-2.276,9.05l-3.154-1.697
			C43.443,33.544,44.111,31.042,44.111,28.38z"/>
		<path fill="#B5DAA3" d="M47.693,28.38h3.155c0,3.814-0.961,7.408-2.654,10.546l-2.777-1.496
			C46.868,34.737,47.693,31.655,47.693,28.38z"/>
		<path fill="#96CE85" d="M50.849,28.38h3.539c0,4.423-1.113,8.585-3.076,12.224l-3.117-1.678
			C49.888,35.788,50.849,32.194,50.849,28.38z"/>
		<path fill="#42B54A" d="M57.974,28.38h3.35c0,5.613-1.413,10.894-3.903,15.511l-2.95-1.588
			C56.706,38.161,57.974,33.419,57.974,28.38z"/>
		<path fill="#77C269" d="M54.388,28.38h3.586c0,5.039-1.268,9.781-3.504,13.923l-3.158-1.699
			C53.274,36.966,54.388,32.804,54.388,28.38z"/>
		<path fill="#00AE29" d="M61.323,28.38h3.556c0,6.222-1.567,12.08-4.327,17.197l-3.132-1.686
			C59.91,39.274,61.323,33.993,61.323,28.38z"/>
		<path fill="#00A115" d="M64.879,28.38h3.675c0,6.853-1.727,13.302-4.766,18.939l-0.008-0.004l-3.229-1.738
			C63.312,40.46,64.879,34.603,64.879,28.38z"/>
		<path fill="#D9F3F6" d="M39.082,34.021l3.181,1.713c-1.371,2.541-3.43,4.656-5.93,6.096L34.535,38.7
			C36.451,37.595,38.03,35.972,39.082,34.021z"/>
		<path fill="#C3E5E9" d="M42.263,35.733l3.154,1.697c-1.687,3.129-4.223,5.73-7.299,7.506l-1.785-3.107
			C38.833,40.39,40.892,38.274,42.263,35.733z"/>
		<path fill="#A5DEDF" d="M45.417,37.431l2.777,1.496c-1.966,3.645-4.92,6.68-8.502,8.744l-1.574-2.734
			C41.194,43.161,43.73,40.56,45.417,37.431z"/>
		<path fill="#73D4CE" d="M48.194,38.927l3.117,1.678c-2.278,4.225-5.702,7.74-9.857,10.135l-1.762-3.068
			C43.274,45.606,46.229,42.571,48.194,38.927z"/>
		<path fill="#53C9C6" d="M51.312,40.604l3.158,1.699c-2.595,4.814-6.494,8.82-11.227,11.547l-1.789-3.111
			C45.609,48.345,49.033,44.829,51.312,40.604z"/>
		<path fill="#00BAB6" d="M54.47,42.304l2.95,1.588c-2.892,5.361-7.237,9.824-12.507,12.859l-1.67-2.9
			C47.976,51.124,51.875,47.118,54.47,42.304z"/>
		<path fill="#00AFA7" d="M57.42,43.892l3.132,1.686c-3.207,5.943-8.024,10.891-13.867,14.258l-1.771-3.084
			C50.183,53.716,54.528,49.253,57.42,43.892z"/>
		<path fill="#00A59B" d="M63.78,47.315l0.008,0.004c-3.531,6.547-8.838,11.996-15.271,15.703l-0.004-0.008l-1.829-3.18
			c5.843-3.367,10.66-8.314,13.867-14.258L63.78,47.315z"/>
		<path fill="#C9EEFA" d="M34.535,38.7l1.798,3.129c-2.275,1.312-4.916,2.062-7.731,2.062v-3.613
			C30.762,40.278,32.786,39.704,34.535,38.7z"/>
		<path fill="#B0E6F8" d="M36.333,41.829l1.785,3.107c-2.8,1.613-6.05,2.535-9.516,2.535v-3.58
			C31.417,43.892,34.058,43.142,36.333,41.829z"/>
		<path fill="#94DEF3" d="M38.118,44.937l1.574,2.734c-3.266,1.879-7.052,2.955-11.09,2.955v-3.154
			C32.068,47.472,35.318,46.55,38.118,44.937z"/>
		<path fill="#76D7F2" d="M39.692,47.671l1.762,3.068c-3.783,2.18-8.172,3.426-12.852,3.426v-3.539
			C32.641,50.626,36.427,49.55,39.692,47.671z"/>
		<path fill="#46CDEF" d="M41.454,50.739l1.789,3.111c-4.311,2.482-9.31,3.902-14.641,3.902v-3.588
			C33.282,54.165,37.671,52.919,41.454,50.739z"/>
		<path fill="#00C2EB" d="M43.243,53.851l1.67,2.9c-4.801,2.768-10.372,4.35-16.311,4.35v-3.348
			C33.934,57.753,38.933,56.333,43.243,53.851z"/>
		<path fill="#00B9E7" d="M44.913,56.751l1.771,3.084c-5.324,3.066-11.498,4.822-18.083,4.822v-3.557
			C34.541,61.101,40.112,59.519,44.913,56.751z"/>
		<path fill="#00B0E5" d="M48.514,63.015l0.004,0.008c-5.862,3.377-12.665,5.309-19.916,5.309v-3.674
			c6.584,0,12.758-1.756,18.083-4.822L48.514,63.015z"/>
		<path fill="#D2EAF9" d="M28.602,40.278v3.613c-2.659,0-5.164-0.67-7.352-1.85l1.711-3.184
			C24.64,39.767,26.562,40.278,28.602,40.278z"/>
		<path fill="#AFD4EE" d="M28.602,43.892v3.58c-3.275,0-6.356-0.824-9.049-2.277l1.698-3.152
			C23.438,43.222,25.943,43.892,28.602,43.892z"/>
		<path fill="#8CC1E4" d="M28.602,47.472v3.154c-3.815,0-7.407-0.961-10.545-2.654l1.496-2.777
			C22.246,46.647,25.327,47.472,28.602,47.472z"/>
		<path fill="#57ACDB" d="M28.602,50.626v3.539c-4.423,0-8.585-1.113-12.223-3.074l1.678-3.119
			C21.195,49.665,24.787,50.626,28.602,50.626z"/>
		<path fill="#0097CB" d="M28.602,54.165v3.588c-5.038,0-9.779-1.27-13.923-3.504l1.7-3.158
			C20.017,53.052,24.179,54.165,28.602,54.165z"/>
		<path fill="#0086C5" d="M28.602,57.753v3.348c-5.613,0-10.896-1.412-15.511-3.902l1.588-2.949
			C18.823,56.483,23.564,57.753,28.602,57.753z"/>
		<path fill="#0078BD" d="M28.602,61.101v3.557c-6.222,0-12.079-1.568-17.196-4.328l1.685-3.131
			C17.707,59.688,22.989,61.101,28.602,61.101z"/>
		<path fill="#006BB6" d="M28.602,64.657v3.674c-6.853,0-13.302-1.725-18.938-4.766l0.004-0.008l1.738-3.229
			C16.523,63.089,22.38,64.657,28.602,64.657z"/>
		<path fill="#E0DBED" d="M22.961,38.858l-1.711,3.184c-2.542-1.373-4.658-3.432-6.097-5.93l3.131-1.801
			C19.388,36.229,21.011,37.81,22.961,38.858z"/>
		<path fill="#CABFDF" d="M21.25,42.042l-1.698,3.152c-3.128-1.688-5.732-4.223-7.504-7.299l3.105-1.783
			C16.593,38.61,18.708,40.669,21.25,42.042z"/>
		<path fill="#B5A8CF" d="M19.553,45.194l-1.496,2.777c-3.646-1.963-6.681-4.918-8.743-8.502l2.734-1.574
			C13.82,40.972,16.424,43.507,19.553,45.194z"/>
		<path fill="#A08CBF" d="M18.057,47.972l-1.678,3.119c-4.226-2.279-7.741-5.703-10.135-9.855l3.07-1.766
			C11.376,43.054,14.412,46.009,18.057,47.972z"/>
		<path fill="#8E74B1" d="M16.379,51.091l-1.7,3.158c-4.813-2.596-8.819-6.498-11.544-11.229l3.109-1.785
			C8.638,45.388,12.153,48.812,16.379,51.091z"/>
		<path fill="#795CA2" d="M14.679,54.249l-1.588,2.949C7.729,54.306,3.267,49.96,0.23,44.69l2.904-1.67
			C5.859,47.751,9.865,51.653,14.679,54.249z"/>
		<path fill="#644597" d="M13.091,57.198l-1.685,3.131C5.462,57.122,0.514,52.308-2.852,46.464L0.23,44.69
			C3.267,49.96,7.729,54.306,13.091,57.198z"/>
		<path fill="#4E2E8D" d="M11.406,60.329l-1.738,3.229l-0.004,0.008c-6.547-3.531-11.995-8.836-15.702-15.27l0.006-0.004l3.18-1.828
			C0.514,52.308,5.462,57.122,11.406,60.329z"/>
		<path fill="#F2E1EF" d="M18.285,34.312l-3.131,1.801c-1.311-2.275-2.062-4.918-2.062-7.732h3.61
			C16.703,30.538,17.278,32.567,18.285,34.312z"/>
		<path fill="#E4C6E0" d="M15.154,36.112l-3.105,1.783c-1.613-2.799-2.536-6.049-2.536-9.515h3.58
			C13.092,31.194,13.843,33.837,15.154,36.112z"/>
		<path fill="#D5AFD1" d="M12.048,37.896L9.314,39.47c-1.882-3.264-2.958-7.051-2.958-11.089h3.156
			C9.512,31.847,10.435,35.097,12.048,37.896z"/>
		<path fill="#C993C3" d="M9.314,39.47l-3.07,1.766c-2.18-3.783-3.427-8.174-3.427-12.855h3.54
			C6.356,32.419,7.432,36.206,9.314,39.47z"/>
		<path fill="#BA7AB1" d="M6.244,41.235l-3.109,1.785C0.652,38.712-0.77,33.712-0.77,28.38h3.587
			C2.817,33.062,4.064,37.452,6.244,41.235z"/>
		<path fill="#AB62A3" d="M3.134,43.021L0.23,44.69c-2.766-4.801-4.349-10.371-4.349-16.31h3.349
			C-0.77,33.712,0.652,38.712,3.134,43.021z"/>
		<path fill="#9D4595" d="M0.23,44.69l-3.082,1.773c-3.067-5.322-4.822-11.498-4.822-18.083h3.555
			C-4.119,34.319-2.536,39.89,0.23,44.69z"/>
		<path fill="#91278A" d="M-2.852,46.464l-3.18,1.828l-0.006,0.004c-3.377-5.863-5.31-12.664-5.31-19.916h3.674
			C-7.673,34.966-5.919,41.142-2.852,46.464z"/>
		<path fill="#FFDEE9" d="M14.941,21.027l3.181,1.713c-0.906,1.676-1.419,3.598-1.419,5.64h-3.61
			C13.092,25.719,13.761,23.216,14.941,21.027z"/>
		<path fill="#FFC4D9" d="M11.79,19.33l3.152,1.697c-1.18,2.189-1.849,4.691-1.849,7.353h-3.58
			C9.512,25.105,10.337,22.023,11.79,19.33z"/>
		<path fill="#FBA9C2" d="M9.009,17.835l2.78,1.495c-1.452,2.693-2.277,5.775-2.277,9.05H6.356
			C6.356,24.564,7.317,20.973,9.009,17.835z"/>
		<path fill="#F38BAC" d="M5.893,16.157l3.116,1.678c-1.692,3.138-2.653,6.729-2.653,10.545h-3.54
			C2.817,23.957,3.931,19.795,5.893,16.157z"/>
		<path fill="#EB6C97" d="M2.734,14.457l3.159,1.7c-1.962,3.638-3.076,7.8-3.076,12.223H-0.77C-0.77,23.34,0.5,18.6,2.734,14.457z"
			/>
		<path fill="#E34C82" d="M-0.215,12.868l2.95,1.589C0.5,18.6-0.77,23.34-0.77,28.38h-3.349
			C-4.119,22.769-2.705,17.485-0.215,12.868z"/>
		<path fill="#DB1C71" d="M-3.345,11.185l3.13,1.684c-2.489,4.617-3.903,9.901-3.903,15.512h-3.555
			C-7.673,22.159-6.106,16.302-3.345,11.185z"/>
		<path fill="#D10465" d="M-6.576,9.446l3.231,1.739c-2.761,5.117-4.328,10.974-4.328,17.196h-3.674
			c0-6.852,1.725-13.301,4.766-18.937L-6.576,9.446z"/>
		<path fill="#FFE1ED" d="M20.87,14.932l1.8,3.131c-1.917,1.104-3.496,2.726-4.548,4.678l-3.181-1.713
			C16.312,18.487,18.372,16.372,20.87,14.932z"/>
		<path fill="#FFC9DD" d="M19.085,11.828l1.785,3.104c-2.498,1.44-4.558,3.555-5.929,6.096L11.79,19.33
			C13.478,16.203,16.011,13.599,19.085,11.828z"/>
		<path fill="#FFAFCE" d="M17.513,9.091l1.573,2.737c-3.074,1.771-5.608,4.375-7.296,7.502l-2.78-1.495
			C10.976,14.19,13.929,11.155,17.513,9.091z"/>
		<path fill="#FF92B7" d="M15.75,6.023l1.763,3.068c-3.583,2.063-6.537,5.099-8.503,8.744l-3.116-1.678
			C8.173,11.932,11.595,8.415,15.75,6.023z"/>
		<path fill="#FF75A4" d="M13.961,2.913l1.789,3.11c-4.154,2.392-7.577,5.909-9.856,10.134l-3.159-1.7
			C5.33,9.644,9.23,5.638,13.961,2.913z"/>
		<path fill="#FF4D8D" d="M12.291,0.008l1.67,2.904C9.23,5.638,5.33,9.644,2.734,14.457l-2.95-1.589
			C2.676,7.507,7.021,3.045,12.291,0.008z"/>
		<path fill="#FF197C" d="M10.52-3.074l1.771,3.083c-5.27,3.037-9.614,7.499-12.506,12.86l-3.13-1.684
			C-0.14,5.24,4.677,0.292,10.52-3.074z"/>
		<path fill="#FF0073" d="M8.691-6.253l1.829,3.179C4.677,0.292-0.14,5.24-3.345,11.185l-3.231-1.739l-0.005-0.002
			C-3.052,2.896,2.253-2.551,8.688-6.259L8.691-6.253z"/>
		<path fill="#F8F7DB" d="M44.111,28.38h-3.61c0-2.16-0.574-4.185-1.58-5.933l3.131-1.799C43.362,22.925,44.111,25.564,44.111,28.38
			z"/>
		<path fill="#F5F3CA" d="M47.693,28.38h-3.582c0-2.816-0.749-5.455-2.06-7.731l3.104-1.785
			C46.771,21.666,47.693,24.915,47.693,28.38z"/>
		<path fill="#EDEBA5" d="M50.849,28.38h-3.155c0-3.465-0.923-6.715-2.537-9.516l2.735-1.574
			C49.773,20.555,50.849,24.343,50.849,28.38z"/>
		<path fill="#E3E686" d="M54.388,28.38h-3.539c0-4.038-1.075-7.825-2.957-11.09l3.07-1.763C53.14,19.311,54.388,23.7,54.388,28.38z
			"/>
		<path fill="#D6DE62" d="M57.974,28.38h-3.586c0-4.68-1.248-9.07-3.426-12.853l3.108-1.788
			C56.553,18.049,57.974,23.049,57.974,28.38z"/>
		<path fill="#CBD739" d="M61.323,28.38h-3.35c0-5.332-1.421-10.332-3.903-14.641l2.903-1.669
			C59.739,16.872,61.323,22.441,61.323,28.38z"/>
		<path fill="#BCD200" d="M64.879,28.38h-3.556c0-5.939-1.584-11.509-4.35-16.311l3.084-1.772
			C63.124,15.621,64.879,21.795,64.879,28.38z"/>
		<path fill="#B0CB00" d="M68.554,28.38h-3.675c0-6.585-1.755-12.759-4.821-18.083l3.18-1.829l0.007-0.004
			C66.62,14.328,68.554,21.129,68.554,28.38z"/>
		<path fill="#FFFEF2" d="M42.052,20.649l-3.131,1.799c-1.105-1.916-2.729-3.495-4.678-4.547l1.711-3.181
			C38.497,16.091,40.612,18.151,42.052,20.649z"/>
		<path fill="#FFFDE5" d="M45.156,18.864l-3.104,1.785c-1.439-2.498-3.555-4.558-6.098-5.929l1.699-3.154
			C40.78,13.254,43.384,15.788,45.156,18.864z"/>
		<path fill="#FFFCCC" d="M47.892,17.291l-2.735,1.574c-1.772-3.077-4.376-5.61-7.503-7.298l1.495-2.777
			C42.792,10.754,45.828,13.707,47.892,17.291z"/>
		<path fill="#FFFAB2" d="M50.962,15.527l-3.07,1.763c-2.063-3.583-5.1-6.537-8.743-8.501l1.677-3.118
			C45.052,7.951,48.567,11.375,50.962,15.527z"/>
		<path fill="#FFF899" d="M54.07,13.739l-3.108,1.788c-2.395-4.153-5.91-7.577-10.137-9.856l1.699-3.158
			C47.339,5.107,51.345,9.008,54.07,13.739z"/>
		<path fill="#FFF566" d="M56.974,12.07l-2.903,1.669c-2.726-4.731-6.731-8.632-11.546-11.227l1.589-2.95
			C49.476,2.454,53.937,6.8,56.974,12.07z"/>
		<path fill="#FFF133" d="M60.058,10.298l-3.084,1.772c-3.037-5.27-7.498-9.616-12.86-12.507l1.685-3.129
			C51.743-0.363,56.69,4.455,60.058,10.298z"/>
		<path fill="#FFED00" d="M63.244,8.465l-0.007,0.004l-3.18,1.829C56.69,4.455,51.743-0.363,45.798-3.566l1.738-3.232l0.004-0.006
			C54.087-3.274,59.535,2.031,63.244,8.465z"/>
		<path fill="#FFF6DE" d="M35.954,14.72l-1.711,3.181c-1.678-0.907-3.6-1.42-5.641-1.42V12.87
			C31.263,12.87,33.767,13.539,35.954,14.72z"/>
		<path fill="#FFE3BC" d="M37.653,11.566l-1.699,3.154c-2.188-1.181-4.691-1.85-7.352-1.85V9.289
			C31.877,9.289,34.96,10.114,37.653,11.566z"/>
		<path fill="#FFCF9A" d="M39.148,8.789l-1.495,2.777c-2.693-1.452-5.776-2.277-9.051-2.277V6.134
			C32.419,6.134,36.011,7.095,39.148,8.789z"/>
		<path fill="#FFB978" d="M40.825,5.671l-1.677,3.118c-3.138-1.694-6.729-2.655-10.546-2.655V2.595
			C33.025,2.595,37.188,3.709,40.825,5.671z"/>
		<path fill="#FFA459" d="M42.524,2.513l-1.699,3.158c-3.637-1.962-7.8-3.076-12.223-3.076v-3.586
			C33.641-0.991,38.382,0.277,42.524,2.513z"/>
		<path fill="#FF8D33" d="M44.113-0.438l-1.589,2.95c-4.143-2.235-8.884-3.504-13.922-3.504v-3.35
			C34.216-4.341,39.497-2.927,44.113-0.438z"/>
		<path fill="#FF7701" d="M45.798-3.566l-1.685,3.129c-4.616-2.49-9.897-3.903-15.511-3.903v-3.554
			C34.824-7.895,40.682-6.328,45.798-3.566z"/>
		<path fill="#FF5F00" d="M47.54-6.805l-0.004,0.006l-1.738,3.232c-5.116-2.761-10.974-4.328-17.196-4.328v-3.674
			C35.454-11.569,41.905-9.844,47.54-6.805z"/>
		<path fill="#FFDBCC" d="M28.602,12.87v3.611c-2.159,0-4.185,0.575-5.932,1.582l-1.8-3.131
			C23.146,13.621,25.787,12.87,28.602,12.87z"/>
		<path fill="#FFC2A8" d="M28.602,9.289v3.581c-2.815,0-5.457,0.751-7.732,2.062l-1.785-3.104
			C21.888,10.212,25.137,9.289,28.602,9.289z"/>
		<path fill="#FFA888" d="M28.602,6.134v3.155c-3.465,0-6.714,0.923-9.517,2.539l-1.573-2.737
			C20.777,7.211,24.565,6.134,28.602,6.134z"/>
		<path fill="#FF8C68" d="M28.602,2.595v3.539c-4.037,0-7.825,1.077-11.089,2.957L15.75,6.023
			C19.532,3.842,23.922,2.595,28.602,2.595z"/>
		<path fill="#FF704A" d="M28.602-0.991v3.586c-4.68,0-9.07,1.247-12.853,3.428l-1.789-3.11C18.272,0.429,23.272-0.991,28.602-0.991
			z"/>
		<path fill="#FF4D31" d="M28.602-4.341v3.35c-5.33,0-10.33,1.42-14.641,3.904l-1.67-2.904C17.093-2.758,22.662-4.341,28.602-4.341z
			"/>
		<path fill="#FF1B1E" d="M28.602-7.895v3.554c-5.94,0-11.509,1.583-16.312,4.349L10.52-3.074
			C15.843-6.14,22.019-7.895,28.602-7.895z"/>
		<path fill="#FF0016" d="M28.602-11.569v3.674c-6.583,0-12.759,1.755-18.082,4.82L8.691-6.253L8.688-6.259
			C14.55-9.637,21.35-11.569,28.602-11.569z"/>
	</g>
</g>
<g id="Layer_2" clip-path="url(#SVGID_2_)">
	<g id="Layer_9">
		<g>
			<path id="path5407_1_" fill="#FFFFFF" stroke="#231F20" stroke-miterlimit="10" d="M53.261,60.167
				c-1.027-2.115,4.827-18.777,4.827-18.777S43.553,45.376,39.497,46.2c-4.055,0.826-10.04,0.697-10.04,0.697
				c-2.73-0.188-3.489-1.246-5.787-3.377c-2.298-2.135-1.849-4.857-1.562-6.154c0.288-1.295,3.978-15.539,5.241-19.808
				c1.262-4.27,0.321-8.977-0.813-10.694c-1.136-1.716-4.37-2.697-4.37-2.697c-9.454-2.415-28.783,6.546-28.783,6.546
				c-2.065-0.825-4.093-3.473-4.093-3.473S15.006-1.975,22.858,2.23c7.853,4.204,7.582,10.837,7.52,13.701
				c-0.061,2.863-5.783,20.838-5.716,23.834c0.065,2.998-1.407,4.918,7.216,3.541c8.621-1.381,20.152-4.779,22.895-5.111
				c2.739-0.332,4.269,1.264,4.269,1.264s2.431,2.004,1.989,4.467c-0.444,2.467-4.445,13.057-6.088,16.797
				C54.624,61.44,53.604,60.872,53.261,60.167z"/>
			<path id="path5405_1_" fill="#FFFFFF" stroke="#231F20" stroke-miterlimit="10" d="M7.682,4.579
				C7.963,5.062,8.408,5.327,8.68,5.172l9.621-5.562c0.271-0.157,0.263-0.675-0.017-1.159l0,0c-0.281-0.485-0.727-0.75-0.998-0.594
				L7.666,3.419C7.395,3.575,7.402,4.094,7.682,4.579L7.682,4.579z"/>
			<path id="path5395_1_" fill="#FFFFFF" stroke="#231F20" stroke-miterlimit="10" d="M-1.742,6.348
				c0.373,0.414,0.996,0.465,1.39,0.111L13.609-6.13c0.393-0.354,0.408-0.979,0.032-1.394l0,0c-0.374-0.415-0.997-0.465-1.389-0.111
				L-1.709,4.956C-2.102,5.309-2.117,5.933-1.742,6.348L-1.742,6.348z"/>
			<path id="path5409_1_" fill="#FFFFFF" stroke="#231F20" stroke-miterlimit="10" d="M46.743,66.667
				c-4.896-8.568-2.42-14.766-2.088-18.143c0.334-3.377,5.24-13.689,5.685-16.154c0.442-2.465-1.989-4.469-1.989-4.469
				s-1.529-1.595-4.27-1.261c-2.741,0.332-14.271,3.732-22.893,5.109s-7.15-0.543-7.217-3.54
				c-0.066-2.996,5.656-20.972,5.718-23.834c0.059-2.862,0.332-9.498-7.521-13.701C4.316-13.53-10.498-8.768-10.498-8.768
				s-6.137,6.9-3.91,6.296c0,0,16.43-7.331,25.884-4.917c0,0,3.233,0.981,4.369,2.698c1.135,1.716,2.076,6.424,0.814,10.693
				c-1.263,4.27-4.952,18.513-5.24,19.808c-0.288,1.297-0.738,4.022,1.561,6.153c2.298,2.135,3.056,3.189,5.787,3.379
				c0,0,5.986,0.127,10.041-0.697c4.054-0.824,18.593-4.811,18.593-4.811s-5.478,15.674-5.579,17.328
				c-0.201,3.252-2.023,9.33,0.735,14.338C45.313,66.505,46.743,66.667,46.743,66.667z"/>
			<path id="path5397_1_" fill="#FFFFFF" stroke="#231F20" stroke-miterlimit="10" d="M31.78,44.8
				c0.387,0.402,1.029,0.418,1.433,0.029l14.354-13.754c0.403-0.387,0.417-1.029,0.03-1.432l0,0
				c-0.385-0.403-1.029-0.417-1.432-0.031L31.812,43.368C31.407,43.755,31.394,44.396,31.78,44.8L31.78,44.8z"/>
			<path id="path5399_1_" fill="#FFFFFF" stroke="#231F20" stroke-miterlimit="10" d="M24.624,43.837
				c0.374,0.416,1.001,0.461,1.401,0.1L40.229,31.13c0.4-0.359,0.42-0.988,0.046-1.404l0,0c-0.375-0.416-1.003-0.462-1.403-0.1
				L24.669,42.433C24.27,42.794,24.249,43.423,24.624,43.837L24.624,43.837z"/>
			<path id="path5401_1_" fill="#FFFFFF" stroke="#231F20" stroke-miterlimit="10" d="M23.747,36.776
				c0.292,0.477,0.779,0.711,1.086,0.521l10.932-6.701c0.308-0.189,0.318-0.73,0.026-1.206l0,0
				c-0.291-0.478-0.777-0.711-1.085-0.522l-10.933,6.702C23.467,35.759,23.455,36.3,23.747,36.776L23.747,36.776z"/>
			<path id="path5403_1_" fill="#FFFFFF" stroke="#231F20" stroke-miterlimit="10" d="M14.929,32.138
				c0.387,0.402,0.996,0.445,1.361,0.098l12.968-12.427c0.364-0.349,0.346-0.961-0.04-1.364l0,0
				c-0.386-0.404-0.996-0.447-1.361-0.099L14.89,30.771C14.524,31.12,14.542,31.731,14.929,32.138L14.929,32.138z"/>
			<path id="path5411_1_" fill="#FFFFFF" stroke="#231F20" stroke-miterlimit="10" d="M12.848,22.912
				c0.386,0.404,1.02,0.426,1.412,0.049L28.254,9.552c0.395-0.377,0.398-1.01,0.012-1.415l0,0c-0.386-0.403-1.02-0.424-1.414-0.048
				L12.86,21.498C12.466,21.875,12.461,22.508,12.848,22.912L12.848,22.912z"/>
			<path id="path5413_1_" fill="#FFFFFF" stroke="#231F20" stroke-miterlimit="10" d="M12.201,28.888
				c0.385,0.403,1.057,0.387,1.498-0.034l15.683-15.028c0.439-0.421,0.483-1.093,0.098-1.496l0,0
				c-0.387-0.404-1.058-0.389-1.5,0.034L12.299,27.392C11.857,27.813,11.812,28.483,12.201,28.888L12.201,28.888z"/>
			<path id="path5415_1_" fill="#FFFFFF" stroke="#231F20" stroke-miterlimit="10" d="M15.14,14.789
				c0.421,0.367,0.955,0.448,1.192,0.175l8.448-9.641c0.239-0.271,0.09-0.79-0.33-1.158l0,0c-0.422-0.369-0.955-0.448-1.192-0.177
				l-8.45,9.643C14.572,13.901,14.72,14.42,15.14,14.789L15.14,14.789z"/>
			<path id="path5417_1_" fill="#FFFFFF" stroke="#231F20" stroke-miterlimit="10" d="M42.775,60.397
				c0.387,0.402,1.028,0.418,1.432,0.029l14.355-13.754c0.401-0.387,0.417-1.029,0.03-1.432l0,0
				c-0.387-0.402-1.029-0.416-1.434-0.031L42.806,58.966C42.402,59.353,42.388,59.993,42.775,60.397L42.775,60.397z"/>
			<path id="path5419_1_" fill="#FFFFFF" stroke="#231F20" stroke-miterlimit="10" d="M42.153,52.546
				c0.334,0.449,0.936,0.564,1.348,0.26L58.09,41.96c0.409-0.305,0.471-0.916,0.138-1.365l0,0c-0.334-0.449-0.938-0.564-1.348-0.26
				L42.292,51.181C41.882,51.485,41.82,52.097,42.153,52.546L42.153,52.546z"/>
		</g>
	</g>
</g>
<use xlink:href="#SVGID_1_"  overflow="visible" fill="none" stroke="#231F20" stroke-miterlimit="10"/>
</svg>
