<?xml version="1.0" encoding="utf-8"?>
<!-- Generator: Adobe Illustrator 16.0.0, SVG Export Plug-In . SVG Version: 6.00 Build 0)  -->
<!DOCTYPE svg PUBLIC "-//W3C//DTD SVG 1.1//EN" "http://www.w3.org/Graphics/SVG/1.1/DTD/svg11.dtd">
<svg version="1.1" id="Layer_1" xmlns="http://www.w3.org/2000/svg" xmlns:xlink="http://www.w3.org/1999/xlink" x="0px" y="0px"
	 width="64px" height="64px" viewBox="0 0 64 64" enable-background="new 0 0 64 64" xml:space="preserve">
<g>
	
		<path fill="#F5CD2D" stroke="#000000" stroke-width="2" stroke-linecap="round" stroke-linejoin="round" stroke-miterlimit="10" d="
		M47.443,31.248c-0.028-8.419-6.876-15.217-15.291-15.189c-8.42,0.028-15.222,6.876-15.193,15.292
		c0.015,4.472,1.956,8.489,5.033,11.267h-0.115c1.949,2.323,3.135,5.306,3.171,8.57l14.293-0.05c0.013-3.218,1.148-6.17,3.033-8.491
		C45.497,39.844,47.458,35.777,47.443,31.248z"/>
	
		<path fill="#21464F" stroke="#000000" stroke-width="2" stroke-linecap="round" stroke-linejoin="round" stroke-miterlimit="10" d="
		M38.952,50.754l-13.625,0.047c-0.384,0-0.692,0.312-0.692,0.695l0.017,5.196c0.003,0.381,0.315,0.687,0.696,0.687l2.501-0.008
		l1.3,2.234l6.04-0.019l1.284-2.247l2.502-0.009c0.382,0.001,0.691-0.31,0.689-0.692l-0.016-5.194
		C39.647,51.062,39.334,50.753,38.952,50.754z"/>
</g>
<g>
	<path fill="#F5CD2D" stroke="#000000" stroke-width="2" stroke-miterlimit="10" d="M32.146,13.42c1.154,0,2.087-0.934,2.087-2.086
		V6.48c0-1.153-0.933-2.086-2.087-2.086c-1.153,0-2.085,0.934-2.085,2.086v4.854C30.061,12.486,30.994,13.42,32.146,13.42z"/>
	<path fill="#F5CD2D" stroke="#000000" stroke-width="2" stroke-miterlimit="10" d="M18.456,16.459
		c0.41,0.562,1.046,0.861,1.692,0.861c0.424,0,0.853-0.129,1.224-0.398c0.931-0.677,1.139-1.981,0.462-2.914l-2.852-3.927
		c-0.678-0.931-1.98-1.141-2.915-0.463c-0.931,0.677-1.139,1.981-0.462,2.914L18.456,16.459z"/>
	<path fill="#F5CD2D" stroke="#000000" stroke-width="2" stroke-miterlimit="10" d="M45.834,47.042
		c-0.677-0.932-1.98-1.138-2.914-0.462c-0.93,0.678-1.138,1.982-0.459,2.914l2.854,3.929c0.407,0.561,1.043,0.859,1.689,0.859
		c0.425,0,0.853-0.129,1.224-0.398c0.931-0.677,1.139-1.981,0.461-2.914L45.834,47.042z"/>
	<path fill="#F5CD2D" stroke="#000000" stroke-width="2" stroke-miterlimit="10" d="M13.376,23.458l-4.617-1.501
		c-1.106-0.357-2.273,0.243-2.63,1.339c-0.357,1.095,0.243,2.272,1.338,2.629l4.617,1.501c0.216,0.069,0.432,0.103,0.646,0.103
		c0.88,0,1.697-0.561,1.984-1.443C15.071,24.992,14.472,23.814,13.376,23.458z"/>
	<path fill="#F5CD2D" stroke="#000000" stroke-width="2" stroke-miterlimit="10" d="M56.824,37.576l-4.615-1.5
		c-1.097-0.354-2.272,0.244-2.629,1.34s0.244,2.272,1.34,2.629l4.618,1.499c0.213,0.07,0.429,0.103,0.643,0.103
		c0.88,0,1.696-0.561,1.984-1.441C58.521,39.108,57.921,37.932,56.824,37.576z"/>
	<path fill="#F5CD2D" stroke="#000000" stroke-width="2" stroke-miterlimit="10" d="M12.086,36.076l-4.619,1.497
		c-1.096,0.356-1.697,1.532-1.34,2.629c0.285,0.883,1.103,1.443,1.983,1.443c0.212,0,0.431-0.034,0.645-0.103l4.618-1.498
		c1.097-0.355,1.698-1.532,1.341-2.628C14.36,36.322,13.192,35.723,12.086,36.076z"/>
	<path fill="#F5CD2D" stroke="#000000" stroke-width="2" stroke-miterlimit="10" d="M51.564,27.529c0.215,0,0.43-0.034,0.645-0.103
		l4.615-1.5c1.097-0.356,1.697-1.533,1.341-2.629c-0.356-1.095-1.538-1.694-2.627-1.34l-4.618,1.5
		c-1.096,0.356-1.696,1.534-1.34,2.629C49.867,26.968,50.685,27.529,51.564,27.529z"/>
	<path fill="#F5CD2D" stroke="#000000" stroke-width="2" stroke-miterlimit="10" d="M18.459,47.041l-2.856,3.926
		c-0.678,0.932-0.472,2.237,0.461,2.914c0.369,0.27,0.798,0.399,1.223,0.399c0.646,0,1.282-0.298,1.689-0.859l2.857-3.925
		c0.678-0.933,0.472-2.237-0.461-2.915C20.443,45.9,19.133,46.109,18.459,47.041z"/>
	<path fill="#F5CD2D" stroke="#000000" stroke-width="2" stroke-miterlimit="10" d="M45.312,10.081l-2.852,3.927
		c-0.677,0.933-0.469,2.237,0.462,2.914c0.37,0.269,0.8,0.398,1.224,0.398c0.646,0,1.282-0.298,1.691-0.861l2.852-3.928
		c0.677-0.932,0.469-2.237-0.462-2.914C47.29,8.938,45.99,9.148,45.312,10.081z"/>
</g>
</svg>
