<svg version="1.1" id="Layer_1" xmlns="http://www.w3.org/2000/svg" xmlns:xlink="http://www.w3.org/1999/xlink" x="0px" y="0px"
	 width="100%" height="100%" viewBox="0 0 500 500" enable-background="new 0 0 500 500" xml:space="preserve">
<path fill="#FFFFFF" stroke="#231F20" stroke-width="2" stroke-miterlimit="10" d="M141.611,339.581
	c0,6.65-5.391,12.042-12.042,12.042H86.836c-6.651,0-12.042-5.392-12.042-12.042l0,0c0-6.65,5.392-12.044,12.042-12.044h42.733
	C136.22,327.537,141.611,332.93,141.611,339.581L141.611,339.581z"/>
<path fill="#FFFFFF" stroke="#231F20" stroke-width="2" stroke-miterlimit="10" d="M427.525,339.581
	c0,6.65-5.394,12.042-12.043,12.042h-42.731c-6.651,0-12.042-5.392-12.042-12.042l0,0c0-6.65,5.39-12.044,12.042-12.044h42.732
	C422.133,327.537,427.525,332.93,427.525,339.581L427.525,339.581z"/>
<rect x="62.289" y="45.118" fill="#FFFFFF" stroke="#231F20" stroke-width="2" stroke-miterlimit="10" width="377.743" height="294.595"/>
<path fill="#FFFFFF" stroke="#231F20" stroke-width="2" stroke-miterlimit="10" d="M415.871,267.323
	c0,7.294-5.912,13.211-13.205,13.211H99.654c-7.293,0-13.204-5.916-13.204-13.211V79.303c0-7.294,5.911-13.208,13.204-13.208
	h303.012c7.293,0,13.205,5.914,13.205,13.208V267.323L415.871,267.323z"/>
<rect x="143.813" y="76.973" fill="#FFFFFF" stroke="#231F20" stroke-width="2" stroke-miterlimit="10" width="214.695" height="153.058"/>
<path fill="#FFFFFF" stroke="#231F20" stroke-width="2" stroke-miterlimit="10" d="M143.813,76.973h-34.529
	c-6.604,0-11.958,5.167-11.958,11.542V251.39l46.488-26.726L143.813,76.973L143.813,76.973z"/>
<path fill="#FFFFFF" stroke="#231F20" stroke-width="2" stroke-miterlimit="10" d="M393.037,76.973h-34.529v147.502h-0.005
	l46.491,26.664V88.498C404.994,82.132,399.638,76.973,393.037,76.973z"/>
<path fill="#FFFFFF" stroke="#231F20" stroke-width="2" stroke-miterlimit="10" d="M143.813,207.313l-46.488,44.394
	c0,10.584,5.355,19.167,11.958,19.167h283.754c6.601,0,11.957-8.583,11.957-19.167l-46.491-44.353L143.813,207.313z"/>
<circle fill="#FFFFFF" stroke="#231F20" stroke-width="2" stroke-miterlimit="10" cx="250.027" cy="307.711" r="16.694"/>
<path fill="#FFFFFF" stroke="#231F20" stroke-width="2" stroke-miterlimit="10" d="M190.169,255.155
	c0,1.556,2.275,2.925,5.698,3.706v-7.42C192.444,252.225,190.169,253.592,190.169,255.155z"/>
<path fill="#FFFFFF" stroke="#231F20" stroke-width="2" stroke-miterlimit="10" d="M214.773,255.155
	c0-1.562-2.275-2.933-5.698-3.714v7.42C212.498,258.08,214.773,256.711,214.773,255.155z"/>
<path fill="#FFFFFF" stroke="#231F20" stroke-width="2" stroke-miterlimit="10" d="M195.866,218.768v32.676v7.418
	c1.909,0.438,4.173,0.692,6.604,0.692c2.433,0,4.697-0.253,6.605-0.692v-7.418v-32.676H195.866z"/>
<path fill="#FFFFFF" stroke="#231F20" stroke-width="2" stroke-miterlimit="10" d="M238.857,255.155
	c0,1.556,2.274,2.925,5.699,3.706v-7.42C241.133,252.225,238.857,253.592,238.857,255.155z"/>
<path fill="#FFFFFF" stroke="#231F20" stroke-width="2" stroke-miterlimit="10" d="M263.461,255.155
	c0-1.562-2.273-2.933-5.699-3.714v7.42C261.188,258.08,263.461,256.711,263.461,255.155z"/>
<path fill="#FFFFFF" stroke="#231F20" stroke-width="2" stroke-miterlimit="10" d="M244.557,218.768v32.676v7.418
	c1.908,0.438,4.169,0.692,6.603,0.692c2.436,0,4.696-0.253,6.604-0.692v-7.418v-32.676H244.557z"/>
<path fill="#FFFFFF" stroke="#231F20" stroke-width="2" stroke-miterlimit="10" d="M287.546,255.155
	c0,1.556,2.275,2.925,5.696,3.706v-7.42C289.822,252.225,287.546,253.592,287.546,255.155z"/>
<path fill="#FFFFFF" stroke="#231F20" stroke-width="2" stroke-miterlimit="10" d="M312.151,255.155
	c0-1.562-2.276-2.933-5.699-3.714v7.42C309.875,258.08,312.151,256.711,312.151,255.155z"/>
<path fill="#FFFFFF" stroke="#231F20" stroke-width="2" stroke-miterlimit="10" d="M293.242,218.768v32.676v7.418
	c1.911,0.438,4.174,0.692,6.607,0.692c2.43,0,4.694-0.253,6.604-0.692v-7.418v-32.676H293.242z"/>
<polygon fill="#FFFFFF" stroke="#231F20" stroke-width="2" stroke-miterlimit="10" points="192.926,197.892 167.708,233.303 
	334.612,233.303 309.392,197.926 "/>
<path fill="#FFFFFF" stroke="#231F20" stroke-width="2" stroke-miterlimit="10" d="M347.354,76.973h-3.869
	c-0.704,18.332-2.551,36.812-1.229,55.164c0.515,7.18,3.23,15.668-1.759,21.896c-1.641,2.049-6.131,5.877-8.814,3.346
	c-2.203-2.078-2.957-5.867-3.74-8.653c-1.041-3.695-1.913-7.435-3.282-11.027c-2.495-6.546-7.301-11.202-14.646-8.729
	c-2.356,0.797-1.347,4.551,1.032,3.746c15.706-5.291,8.66,28.276,22,29.391c4.237,0.355,8.43-3.116,10.875-6.17
	c4.413-5.504,3.49-12.973,2.692-19.473c-1.188-9.633-0.532-19.25-0.435-28.92c0.057-5.383-0.19-10.706,0.157-16.09
	C346.645,86.621,347.125,81.811,347.354,76.973z"/>
<rect x="97.321" y="96.763" fill="#FFFFFF" stroke="#231F20" stroke-width="2" stroke-miterlimit="10" width="307.733" height="12.948"/>
<path fill="#FFFFFF" stroke="#231F20" stroke-width="2" stroke-miterlimit="10" d="M287.348,155.808c0,0-0.162-0.312-0.356-0.789
	c-0.095-0.234-0.205-0.509-0.312-0.806c-0.11-0.297-0.189-0.609-0.283-0.924c-0.051-0.158-0.116-0.314-0.188-0.471
	c-0.076-0.152-0.138-0.307-0.144-0.454c-0.007-0.297,0.15-0.571,0.323-0.809c0.093-0.115,0.198-0.227,0.302-0.319
	c0.104-0.096,0.204-0.181,0.306-0.25c0.19-0.139,0.354-0.215,0.354-0.215h0.271c0,0,0.16,0.077,0.352,0.215
	c0.103,0.07,0.205,0.154,0.311,0.25c0.1,0.094,0.207,0.204,0.297,0.319c0.176,0.239,0.332,0.513,0.326,0.809
	c-0.005,0.147-0.068,0.302-0.145,0.454c-0.071,0.156-0.14,0.312-0.187,0.471c-0.096,0.314-0.176,0.629-0.29,0.924
	c-0.102,0.297-0.21,0.57-0.307,0.806c-0.196,0.476-0.355,0.789-0.355,0.789H287.348z"/>
<path fill="#FFFFFF" stroke="#231F20" stroke-width="2" stroke-miterlimit="10" d="M306.007,143.998c0,1.062-0.86,1.922-1.923,1.922
	h-33.203c-1.062,0-1.92-0.86-1.92-1.922v-27.363c0-1.061,0.858-1.922,1.92-1.922h33.203c1.062,0,1.923,0.861,1.923,1.922V143.998z"
	/>
<path fill="#FFFFFF" stroke="#231F20" stroke-width="2" stroke-miterlimit="10" d="M295.11,114.713V98.608c0-3.866-2.438-7-5.447-7
	h-4.359c-3.01,0-5.448,3.131-5.448,7v16.104H295.11z"/>
<path fill="#FFFFFF" stroke="#231F20" stroke-width="2" stroke-miterlimit="10" d="M273.001,145.922
	c0.222,2.729,2.503,4.875,5.287,4.875h18.389c2.784,0,5.066-2.146,5.291-4.875H273.001z"/>
<path fill="#FFFFFF" stroke="#231F20" stroke-width="2" stroke-miterlimit="10" d="M307.363,120.692h-1.356v19.25h1.356
	c3.013,0,5.451-2.44,5.451-5.451v-8.351C312.814,123.129,310.376,120.692,307.363,120.692z"/>
<path fill="#FFFFFF" stroke="#231F20" stroke-width="2" stroke-miterlimit="10" d="M273.703,120.137
	c0-0.789,0.641-1.428,1.429-1.428h24.702c0.789,0,1.429,0.637,1.429,1.428v20.361c0,0.787-0.64,1.428-1.429,1.428h-24.702
	c-0.788,0-1.429-0.641-1.429-1.428V120.137z"/>
<path fill="#FFFFFF" stroke="#231F20" stroke-width="2" stroke-miterlimit="10" d="M292.656,130.317
	c0,2.856-2.313,5.174-5.174,5.174c-2.857,0-5.176-2.317-5.176-5.174c0-2.86,2.317-5.177,5.176-5.177
	C290.343,125.141,292.656,127.457,292.656,130.317z"/>
<circle fill="#FFFFFF" stroke="#231F20" stroke-width="2" stroke-miterlimit="10" cx="287.482" cy="130.317" r="4.131"/>
<path fill="#FFFFFF" stroke="#231F20" stroke-width="2" stroke-miterlimit="10" d="M224.105,217.418
	c-3.09,0.229-11.055-4.356-8.998-14.412c2.359-11.52,15.395-13.896,20.822-18.765c5.426-4.872,20.22-15.332,36.063-12.039
	c15.847,3.287,20.717,16.636,18.187,29.642c-2.531,13.007-13.604,22.187-23.332,19.139
	C257.123,217.934,235.41,216.579,224.105,217.418z"/>
<path fill="#FFFFFF" stroke="#231F20" stroke-width="2" stroke-miterlimit="10" d="M258.2,199.94c0,0-1.125,6.506,3.155,9.338
	c4.28,2.831,14.43,3.567,17.519-8.584c3.279-12.896-5.672-17.396-12.294-18.769c-6.619-1.375-26.471,3.184-32.525,23.625
	c0,0,1.111-10.279,10.721-19.472c9.606-9.198,24.977-8.622,31.105-3.706c7.878,6.316,8.182,16.217,3.707,25.225
	c-4.472,9.005-17.005,7.759-19.924,3.271C256.194,205.527,258.2,199.94,258.2,199.94z"/>
<path fill="#FFFFFF" stroke="#231F20" stroke-width="2" stroke-miterlimit="10" d="M262.961,202.074c0,0,2.087-4.593-1.279-7.46
	c-3.364-2.87-8.173,2.3-8.839,6.043c-0.665,3.744-2.628,9.392-6.14,8.318c-3.518-1.074-4.568,2.36-8.768,2.403
	c-4.196,0.043-3.646-5.324,0.058-6.271c3.706-0.942,7.708,1.031,9.002,0.272c1.289-0.761,3.05-3.25,3.841-6.511
	c0.791-3.264,6.706-10.485,12.615-5.146C267.328,197.226,262.961,202.074,262.961,202.074z"/>
<path fill="none" stroke="#231F20" stroke-width="2" stroke-miterlimit="10" d="M48.649,437.566
	c-0.693-1.068-1.102-2.185-1.227-3.35c-0.126-1.163,0.031-2.231,0.472-3.208c0.439-0.975,1.147-1.745,2.123-2.312
	c0.975-0.566,2.154-0.786,3.539-0.66c1.509,0.126,2.798,0.646,3.869,1.557c1.069,0.912,2.154,1.762,3.255,2.548
	c1.1,0.787,2.279,1.32,3.538,1.604c1.258,0.283,2.798-0.142,4.624-1.273c0.439-0.314,0.817-0.645,1.132-0.991
	c0.314-0.345,0.628-0.707,0.944-1.085c0.377-0.503,0.661-0.928,0.849-1.273c0.189-0.346,0.377-0.803,0.566-1.368
	c0.377-1.069,0.628-2.076,0.755-3.02c0.125-0.944,0.125-1.949,0-3.02c-0.944-1.761-2.124-2.926-3.539-3.491
	c-1.416-0.566-2.894-0.928-4.435-1.085c-1.542-0.157-3.066-0.331-4.576-0.52s-2.8-0.755-3.869-1.698
	c-0.944-0.817-1.526-1.761-1.746-2.831c-0.221-1.068-0.158-2.091,0.188-3.066c0.345-0.975,0.944-1.84,1.793-2.595
	s1.871-1.227,3.066-1.416c0.944-0.188,1.965-0.36,3.067-0.519c1.1-0.156,2.154-0.408,3.161-0.755
	c1.005-0.345,1.949-0.802,2.831-1.368c0.88-0.566,1.604-1.321,2.17-2.265c0.062-0.691,0.078-1.368,0.047-2.028
	c-0.032-0.661-0.205-1.306-0.519-1.935c-0.629-0.566-1.526-0.958-2.689-1.18c-1.165-0.22-2.392-0.314-3.68-0.283
	c-1.29,0.032-2.5,0.174-3.633,0.425c-1.132,0.252-2.045,0.535-2.736,0.85c-1.51,1.51-3.052,2.217-4.624,2.123
	c-1.573-0.095-2.894-0.645-3.963-1.651c-1.07-1.006-1.731-2.265-1.982-3.774c-0.252-1.51,0.189-2.862,1.321-4.058
	c0.88-1.006,1.871-1.808,2.972-2.406c1.1-0.597,2.312-1.085,3.633-1.463c3.208-0.88,6.558-1.335,10.049-1.368
	c3.491-0.03,6.747,0.74,9.766,2.312c2.453,1.259,4.293,2.925,5.52,5.001c1.227,2.075,1.918,4.278,2.076,6.604
	c0.156,2.328-0.205,4.64-1.085,6.936c-0.882,2.297-2.234,4.326-4.058,6.086c2.265,1.573,3.978,3.383,5.143,5.426
	c1.164,2.045,1.887,4.152,2.17,6.322s0.156,4.373-0.377,6.605c-0.535,2.233-1.432,4.325-2.689,6.274
	c-1.259,1.95-2.816,3.728-4.67,5.331c-1.856,1.604-3.948,2.878-6.275,3.821c-2.014,0.817-3.996,1.194-5.945,1.133
	c-1.95-0.063-3.854-0.41-5.708-1.038c-1.856-0.63-3.649-1.495-5.378-2.595c-1.731-1.1-3.35-2.312-4.859-3.633L48.649,437.566z"/>
<path fill="none" stroke="#231F20" stroke-width="2" stroke-miterlimit="10" d="M104.98,445.776
	c-1.637-0.315-3.036-1.07-4.199-2.265c-1.165-1.196-1.746-2.673-1.746-4.436v-39.725c-1.132,0.188-2.234,0.047-3.303-0.425
	c-1.07-0.472-1.919-1.1-2.548-1.887c-0.629-0.786-0.991-1.698-1.085-2.736s0.236-2.029,0.991-2.973
	c0.817-1.069,1.793-1.965,2.925-2.689c1.132-0.722,2.326-1.32,3.585-1.793c1.258-0.472,2.562-0.863,3.916-1.179
	c1.352-0.314,2.657-0.598,3.916-0.85c3.522-0.566,7.045-0.708,10.568-0.425c3.522,0.283,6.856,1.055,10.002,2.312
	c3.145,1.259,6.023,3.019,8.634,5.283c2.61,2.265,4.733,5.096,6.369,8.493c1.006,2.075,1.729,4.23,2.17,6.463
	c0.439,2.233,0.691,4.482,0.755,6.747c0.062,2.957-0.283,5.819-1.038,8.586c-0.755,2.77-1.887,5.364-3.397,7.785
	c-1.509,2.422-3.335,4.576-5.473,6.464c-2.139,1.887-4.529,3.46-7.171,4.718c-2.328,1.068-4.797,1.854-7.407,2.358
	c-2.611,0.503-5.175,0.944-7.69,1.321c-1.259,0.188-2.595,0.393-4.01,0.613c-1.416,0.22-2.784,0.33-4.104,0.33L104.98,445.776z
	 M115.171,395.672c-0.818,0-1.589,0.032-2.312,0.094c-0.724,0.063-1.495,0.158-2.312,0.283v37.838c0.377,0,0.691-0.031,0.943-0.094
	c0.25-0.062,0.503-0.095,0.755-0.095c0.25,0,0.472-0.031,0.661-0.095c0.88-0.125,1.604-0.22,2.17-0.283
	c0.566-0.062,1.1-0.142,1.604-0.235c0.502-0.095,1.021-0.203,1.557-0.33c0.534-0.126,1.147-0.283,1.84-0.472
	c3.648-0.944,6.526-2.438,8.634-4.482c2.106-2.044,3.694-4.859,4.765-8.445c0.691-2.076,1.005-4.183,0.943-6.322
	c-0.063-2.138-0.457-4.183-1.18-6.133c-0.724-1.949-1.778-3.728-3.161-5.331c-1.385-1.604-3.083-2.878-5.096-3.822
	c-1.636-0.755-3.255-1.257-4.859-1.51C118.521,395.987,116.87,395.799,115.171,395.672z"/>
<path fill="none" stroke="#231F20" stroke-width="2" stroke-miterlimit="10" d="M188.77,389.066
	c0.188-0.691,0.502-1.368,0.943-2.028c0.439-0.661,0.958-1.242,1.557-1.746c0.597-0.503,1.257-0.864,1.981-1.085
	c0.722-0.22,1.462-0.203,2.217,0.047c2.327-0.943,4.702-1.729,7.124-2.358c2.421-0.628,4.843-0.991,7.266-1.085
	c2.421-0.095,4.812,0.126,7.171,0.66c2.359,0.535,4.638,1.525,6.841,2.973c1.761,1.132,3.317,2.547,4.671,4.246
	c1.352,1.698,2.468,3.491,3.35,5.378c1.51,3.397,2.201,6.779,2.076,10.144c-0.127,3.366-0.913,6.496-2.359,9.389
	c-1.448,2.895-3.477,5.442-6.086,7.644c-2.611,2.202-5.678,3.807-9.2,4.812c-2.642,0.755-5.332,1.118-8.068,1.086
	c-2.736-0.031-5.426-0.204-8.068-0.52v9.153c0,0.692,0.031,1.415,0.095,2.17c0.062,0.755,0.078,1.51,0.047,2.265
	c-0.032,0.755-0.126,1.495-0.283,2.218c-0.158,0.722-0.457,1.398-0.896,2.028c-0.755,1.258-1.731,2.028-2.925,2.312
	c-1.196,0.283-2.344,0.22-3.444-0.188c-1.102-0.41-2.045-1.102-2.831-2.076c-0.787-0.976-1.179-2.155-1.179-3.538v-16.984
	c-1.196-0.628-2.076-1.416-2.642-2.359c-0.566-0.943-0.818-1.901-0.755-2.878c0.062-0.975,0.377-1.901,0.943-2.783
	c0.566-0.881,1.352-1.604,2.359-2.171v-24.155L188.77,389.066z M216.228,393.219c-2.642-1.069-5.331-1.384-8.067-0.944
	c-2.736,0.441-5.395,1.26-7.974,2.453v20.57c2.956,0.505,5.976,0.63,9.059,0.378c3.082-0.251,5.912-1.194,8.492-2.831
	c1.824-1.194,3.082-2.704,3.774-4.529c0.691-1.823,0.944-3.68,0.755-5.567c-0.188-1.887-0.818-3.694-1.887-5.425
	C219.309,395.594,217.926,394.226,216.228,393.219z"/>
<path fill="none" stroke="#231F20" stroke-width="2" stroke-miterlimit="10" d="M240.856,413.081
	c0.062-0.408,0.031-1.147-0.094-2.218c-1.007-0.566-1.793-1.288-2.359-2.17c-0.566-0.881-0.896-1.824-0.991-2.831
	c-0.094-1.006,0.095-1.965,0.566-2.878c0.472-0.911,1.241-1.683,2.312-2.312c1.446-0.817,3.034-0.975,4.765-0.472
	c1.729,0.504,3.223,1.259,4.482,2.265c1.572-1.194,3.208-2.201,4.907-3.02c1.698-0.817,3.428-1.368,5.189-1.651
	c1.761-0.283,3.554-0.236,5.378,0.142c1.824,0.377,3.617,1.164,5.379,2.358c0.881,0.566,1.699,1.274,2.453,2.123
	c0.756,0.85,1.227,1.81,1.416,2.878c0.313,1.573,0.188,2.941-0.378,4.104c-0.565,1.165-1.354,2.015-2.358,2.548
	c-1.008,0.535-2.14,0.693-3.397,0.472c-1.259-0.22-2.453-0.896-3.585-2.028c-0.378-0.251-0.646-0.456-0.803-0.613
	c-0.158-0.156-0.488-0.361-0.99-0.613c-1.008-0.251-1.998-0.188-2.973,0.188c-0.977,0.378-1.92,0.896-2.83,1.557
	c-0.914,0.661-1.763,1.385-2.549,2.171c-0.787,0.787-1.494,1.495-2.123,2.123v24.062c0,0.943-0.188,1.855-0.566,2.736
	c-0.565,1.446-1.462,2.453-2.688,3.02c-1.227,0.565-2.454,0.722-3.68,0.472c-1.227-0.252-2.297-0.882-3.208-1.888
	c-0.913-1.007-1.368-2.295-1.368-3.868v-26.421C240.762,413.568,240.793,413.49,240.856,413.081z"/>
<path fill="none" stroke="#231F20" stroke-width="2" stroke-miterlimit="10" d="M280.013,385.858
	c0.251-2.326,1.053-4.041,2.406-5.143c1.352-1.1,2.783-1.635,4.293-1.604c1.51,0.033,2.909,0.613,4.199,1.746
	c1.288,1.132,1.966,2.736,2.028,4.812c0.125,2.139-0.424,3.79-1.65,4.953c-1.227,1.165-2.628,1.825-4.199,1.981
	c-1.573,0.158-3.053-0.267-4.436-1.273c-1.385-1.006-2.233-2.609-2.547-4.812L280.013,385.858z M292.468,439.549
	c-0.126,1.259-0.565,2.375-1.321,3.35c-0.754,0.975-1.619,1.682-2.594,2.123c-0.977,0.439-2.029,0.533-3.162,0.283
	c-1.132-0.253-2.139-0.944-3.02-2.076c-0.504-0.63-0.865-1.336-1.084-2.123c-0.222-0.786-0.363-1.604-0.426-2.453
	c-0.062-0.85-0.079-1.699-0.047-2.548c0.031-0.85,0.047-1.619,0.047-2.312c-0.062-3.711-0.079-7.392-0.047-11.04
	c0.031-3.647,0.016-7.328-0.047-11.04c0-1.51-0.094-3.034-0.283-4.577c-0.188-1.54-0.094-3.066,0.283-4.576
	c0.314-1.132,0.863-2.106,1.651-2.925c0.786-0.816,1.666-1.383,2.642-1.698c0.975-0.314,1.982-0.346,3.02-0.095
	c1.038,0.252,1.935,0.913,2.689,1.981c1.006,1.259,1.51,2.501,1.51,3.728s0,2.722,0,4.481c0,2.14,0,4.279,0,6.417
	c0,2.139,0.031,4.246,0.094,6.322c0.062,3.019,0.095,6.038,0.095,9.058s0,6.039,0,9.059V439.549z"/>
<path fill="none" stroke="#231F20" stroke-width="2" stroke-miterlimit="10" d="M340.59,439.737
	c-0.188,1.573-0.771,2.861-1.745,3.868c-0.976,1.006-2.075,1.636-3.302,1.888c-1.227,0.25-2.406,0.094-3.539-0.472
	c-1.133-0.566-1.951-1.668-2.453-3.303c-0.566-1.761-0.787-3.601-0.66-5.521c0.125-1.918,0.188-3.694,0.188-5.331
	c0-3.396,0.016-6.777,0.048-10.144c0.03-3.364-0.11-6.746-0.425-10.144c-0.062-0.125-0.127-0.235-0.188-0.33
	c-0.063-0.095-0.188-0.236-0.378-0.425c-1.447-0.377-2.988-0.283-4.623,0.283c-1.637,0.566-3.02,1.29-4.152,2.17
	c-1.006,0.818-1.997,1.935-2.972,3.351c-0.976,1.415-1.463,2.783-1.463,4.104v13.021c0,1.007,0.031,2.108,0.095,3.302
	c0.062,1.196,0.015,2.359-0.142,3.492c-0.157,1.132-0.519,2.17-1.085,3.113s-1.479,1.635-2.736,2.076
	c-0.693,0.25-1.338,0.345-1.935,0.283c-0.599-0.063-1.243-0.222-1.935-0.472c-1.133-0.378-1.951-1.023-2.453-1.935
	c-0.504-0.911-0.85-1.888-1.038-2.926c-0.188-1.037-0.269-2.043-0.235-3.019c0.03-0.975,0.047-1.746,0.047-2.312
	c0-1.446-0.017-3.538-0.047-6.274c-0.033-2.736-0.048-5.614-0.048-8.634s0-5.897,0-8.634s0-4.827,0-6.275
	c0-1.383,0.409-2.531,1.228-3.443c0.816-0.911,1.775-1.51,2.877-1.793c1.1-0.283,2.265-0.22,3.492,0.188
	c1.227,0.41,2.248,1.243,3.066,2.5c2.515-1.635,5.283-2.736,8.303-3.302c3.02-0.566,5.865-0.472,8.54,0.283
	c2.673,0.755,4.907,2.17,6.699,4.246c1.793,2.075,2.72,4.938,2.784,8.586c0,0.127,0.03,0.505,0.094,1.133
	c0.062,0.629,0.094,1.51,0.094,2.642V439.737z"/>
<path fill="none" stroke="#231F20" stroke-width="2" stroke-miterlimit="10" d="M352.291,410.769
	c-1.259-0.313-2.344-0.849-3.255-1.604c-0.913-0.755-1.542-1.635-1.888-2.643c-0.346-1.005-0.346-2.043,0-3.113
	c0.346-1.069,1.116-2.044,2.312-2.925c1.005-0.755,2.137-1.133,3.396-1.133c1.258,0,2.484,0,3.68,0c0-0.439-0.032-1.399-0.094-2.878
	c-0.063-1.478-0.08-3.098-0.047-4.859c0.03-1.761,0.141-3.444,0.33-5.048c0.188-1.604,0.533-2.721,1.037-3.351
	c1.258-1.76,2.814-2.595,4.672-2.5c1.854,0.095,3.38,0.99,4.576,2.689c0.25,0.315,0.486,0.692,0.707,1.132
	c0.22,0.441,0.33,0.85,0.33,1.227c0.062,2.265,0.078,4.529,0.047,6.794s-0.047,4.529-0.047,6.794h7.455
	c1.132,0,2.106,0.378,2.925,1.133c0.817,0.754,1.399,1.636,1.745,2.642c0.346,1.007,0.439,2.045,0.283,3.114
	c-0.157,1.07-0.646,1.95-1.463,2.642c-1.447,1.195-3.129,1.825-5.047,1.887c-1.92,0.063-3.886,0.095-5.898,0.095
	c0,3.46-0.016,6.921-0.047,10.38c-0.032,3.46-0.016,6.92,0.047,10.379c0,1.51,0.078,3.052,0.236,4.624
	c0.156,1.573,0.047,3.083-0.33,4.529c-0.316,1.132-0.85,2.028-1.604,2.688c-0.755,0.661-1.604,1.069-2.548,1.228
	c-0.943,0.156-1.92,0.094-2.925-0.189c-1.007-0.283-1.95-0.802-2.831-1.557c-0.44-0.44-0.771-1.194-0.99-2.265
	c-0.221-1.069-0.363-2.201-0.425-3.396c-0.063-1.384-0.063-2.862,0-4.436c0-1.258,0-2.893,0-4.906c0-2.013-0.017-4.104-0.048-6.275
	c-0.031-2.17-0.047-4.229-0.047-6.18c0-1.949,0-3.491,0-4.624L352.291,410.769z"/>
<path fill="none" stroke="#231F20" stroke-width="2" stroke-miterlimit="10" d="M415.983,429.546
	c1.51-0.377,2.846-0.392,4.011-0.047c1.162,0.347,2.059,0.929,2.689,1.746c0.627,0.818,0.91,1.825,0.849,3.02
	c-0.063,1.195-0.599,2.453-1.604,3.774c-0.818,1.07-1.95,1.981-3.396,2.736c-1.447,0.755-2.8,1.354-4.058,1.792
	c-3.083,1.133-6.008,1.919-8.775,2.359c-2.769,0.439-5.364,0.439-7.784,0c-2.423-0.44-4.688-1.354-6.794-2.736
	c-2.108-1.383-4.073-3.334-5.897-5.851c-1.26-1.698-2.187-3.633-2.783-5.803c-0.6-2.17-0.93-4.388-0.991-6.652
	c-0.063-2.265,0.126-4.497,0.565-6.699c0.439-2.201,1.069-4.183,1.888-5.944c1.069-2.201,2.768-4.214,5.096-6.039
	c2.326-1.824,4.906-3.271,7.737-4.341c2.83-1.069,5.723-1.683,8.681-1.84c2.956-0.156,5.567,0.299,7.832,1.368
	c1.888,0.882,3.506,2.155,4.859,3.821c1.353,1.668,2.279,3.477,2.784,5.426c0.502,1.95,0.549,3.916,0.141,5.897
	c-0.41,1.981-1.432,3.79-3.066,5.426c-1.573,1.573-3.303,2.847-5.189,3.821c-1.887,0.976-3.838,1.825-5.851,2.548
	c-2.014,0.724-4.073,1.337-6.181,1.84c-2.107,0.504-4.137,1.07-6.086,1.698c1.321,1.51,2.831,2.47,4.529,2.878
	c1.699,0.41,3.475,0.488,5.332,0.236c1.854-0.251,3.727-0.77,5.613-1.558c1.888-0.785,3.648-1.65,5.285-2.595L415.983,429.546z
	 M396.923,413.316c-1.448,0.818-2.517,1.84-3.208,3.067c-0.693,1.227-1.195,2.94-1.51,5.143c1.635-0.503,3.475-1.038,5.52-1.604
	c2.044-0.566,3.979-1.163,5.804-1.793c1.823-0.628,3.364-1.321,4.624-2.076c1.257-0.755,1.887-1.571,1.887-2.453
	c0-0.503-0.08-0.99-0.236-1.463c-0.158-0.472-0.488-0.802-0.99-0.99c-1.762-0.628-3.586-0.755-5.473-0.378
	c-1.888,0.378-3.461,0.913-4.719,1.604L396.923,413.316z"/>
<path fill="none" stroke="#231F20" stroke-width="2" stroke-miterlimit="10" d="M433.251,413.081
	c0.062-0.408,0.03-1.147-0.095-2.218c-1.007-0.566-1.793-1.288-2.358-2.17c-0.566-0.881-0.896-1.824-0.991-2.831
	c-0.094-1.006,0.095-1.965,0.566-2.878c0.472-0.911,1.241-1.683,2.312-2.312c1.445-0.817,3.033-0.975,4.764-0.472
	c1.73,0.504,3.224,1.259,4.482,2.265c1.572-1.194,3.209-2.201,4.907-3.02c1.698-0.817,3.428-1.368,5.189-1.651
	c1.761-0.283,3.554-0.236,5.378,0.142c1.824,0.377,3.617,1.164,5.379,2.358c0.881,0.566,1.699,1.274,2.453,2.123
	c0.756,0.85,1.227,1.81,1.416,2.878c0.313,1.573,0.188,2.941-0.378,4.104c-0.565,1.165-1.354,2.015-2.358,2.548
	c-1.008,0.535-2.14,0.693-3.397,0.472c-1.259-0.22-2.453-0.896-3.585-2.028c-0.378-0.251-0.646-0.456-0.803-0.613
	c-0.158-0.156-0.488-0.361-0.99-0.613c-1.008-0.251-1.998-0.188-2.973,0.188c-0.977,0.378-1.92,0.896-2.83,1.557
	c-0.914,0.661-1.763,1.385-2.549,2.171c-0.787,0.787-1.494,1.495-2.123,2.123v24.062c0,0.943-0.188,1.855-0.566,2.736
	c-0.565,1.446-1.462,2.453-2.688,3.02c-1.227,0.565-2.454,0.722-3.681,0.472c-1.227-0.252-2.297-0.882-3.207-1.888
	c-0.913-1.007-1.369-2.295-1.369-3.868v-26.421C433.156,413.568,433.188,413.49,433.251,413.081z"/>
</svg>
