<?xml version="1.0" encoding="utf-8"?>
<!-- Generator: Adobe Illustrator 16.0.0, SVG Export Plug-In . SVG Version: 6.00 Build 0)  -->
<!DOCTYPE svg PUBLIC "-//W3C//DTD SVG 1.1//EN" "http://www.w3.org/Graphics/SVG/1.1/DTD/svg11.dtd">
<svg version="1.1" id="Layer_1" xmlns="http://www.w3.org/2000/svg" xmlns:xlink="http://www.w3.org/1999/xlink" x="0px" y="0px"
	 width="494.779px" height="72.028px" viewBox="0 0 494.779 72.028" enable-background="new 0 0 494.779 72.028"
	 xml:space="preserve">
<g>
	<g>
		<path fill="#71CCBE" d="M58.337,36.014v36.014h422.941c0,0,7.143-12.005,7.143-36.014S481.278,0,481.278,0H58.337V36.014z"/>
		<path fill="#FE7C26" d="M58.337,36.014v36.014h422.941c0,0,7.143-12.005,7.143-36.014S481.278,0,481.278,0H58.337V36.014z"/>
		<path fill="#E25A0E" d="M58.337,54.021h10.119h418.472c0.869-4.977,1.493-10.961,1.493-18.007c0-7.047-0.624-13.031-1.493-18.007
			H68.456L58.337,19.58v16.434V54.021z"/>
		<polygon fill="#F9C9B1" points="0,36.014 58.337,72.028 68.456,54.021 58.337,36.014 68.456,18.007 58.337,0 		"/>
		<polygon fill="#E25A0E" points="23.506,50.938 23.506,21.091 -0.669,36.014 		"/>
	</g>
	<path fill="#C1490C" d="M488.421,36.014c0,0,0.488,16.385-7.143,36.014c0,0,13.501-5.446,13.501-36.014S481.278,0,481.278,0
		C488.909,19.635,488.421,36.014,488.421,36.014z"/>
</g>
</svg>
