<?xml version="1.0" encoding="utf-8"?>
<!-- Generator: Adobe Illustrator 16.0.0, SVG Export Plug-In . SVG Version: 6.00 Build 0)  -->
<!DOCTYPE svg PUBLIC "-//W3C//DTD SVG 1.1//EN" "http://www.w3.org/Graphics/SVG/1.1/DTD/svg11.dtd">
<svg version="1.1" id="Layer_1" xmlns="http://www.w3.org/2000/svg" xmlns:xlink="http://www.w3.org/1999/xlink" x="0px" y="0px"
	 width="612px" height="792px" viewBox="0 0 612 792" enable-background="new 0 0 612 792" xml:space="preserve">
<g id="layer1_2_" transform="translate(-55.651276,-118.58552)" inkscape:groupmode="layer" inkscape:label="Layer 1">
	<g>
		<g id="g3818_9_">
			
				<path id="path3610_9_" sodipodi:nodetypes="ccccc" fill="#FFFFFF" stroke="#231F20" stroke-width="2.5" stroke-miterlimit="10" d="
				M367.679,366.442l-70.923,34.578l-1.512-2.832l70.775-34.317L367.679,366.442L367.679,366.442z"/>
			
				<path id="path3606_9_" sodipodi:nodetypes="ccccc" fill="#FFFFFF" stroke="#231F20" stroke-width="2.5" stroke-miterlimit="10" d="
				M399.142,401.051l41.454,73.205c-1.186,3.363-3.389,3.753-5.896,3.267l-40.571-73.231L399.142,401.051L399.142,401.051z"/>
			
				<path id="path3594_9_" sodipodi:nodetypes="ccccc" fill="#FFFFFF" stroke="#231F20" stroke-width="2.5" stroke-miterlimit="10" d="
				M346.072,465.688l21.195-1.669l9.42,186.399c-2.117,5.744-4.459,6.045-7.066,0L346.072,465.688z"/>
			
				<path id="path3688_9_" sodipodi:nodetypes="cccc" fill="#FFFFFF" stroke="#231F20" stroke-width="2.5" stroke-miterlimit="10" d="
				M327.628,395.78l-2.711,1.451l9.96,17.626l2.474-1.226"/>
			
				<path id="path3602_9_" sodipodi:nodetypes="ccccc" fill="#FFFFFF" stroke="#231F20" stroke-width="2.5" stroke-miterlimit="10" d="
				M388.93,390.602l-51.477,22.984l-9.78-17.796l51.238-24.255L388.93,390.602L388.93,390.602z"/>
			
				<path id="path3600_9_" sodipodi:nodetypes="cccc" fill="#FFFFFF" stroke="#231F20" stroke-width="2.5" stroke-miterlimit="10" d="
				M372.225,421.669l-2.303-34.212c-7.891-7.338-16.494-10.783-27.707,0l-2.855,33.631"/>
			<path id="rect3668_9_" fill="#FFFFFF" stroke="#231F20" stroke-width="2.5" stroke-miterlimit="10" d="M386.941,420.475h-62.393
				c-0.504,0-0.914,0.41-0.914,0.915v42.431c0,0.506,0.41,0.915,0.914,0.915h62.393c0.506,0,0.914-0.409,0.914-0.915V421.39
				C387.855,420.885,387.447,420.475,386.941,420.475z"/>
			
				<path id="path3674_9_" sodipodi:nodetypes="cccc" fill="#FFFFFF" stroke="#231F20" stroke-width="2.5" stroke-miterlimit="10" d="
				M383.121,450.554l-6.168-0.871l-5.369,5.66l6.457-0.363"/>
			
				<path id="path3666_9_" sodipodi:nodetypes="cccc" fill="#FFFFFF" stroke="#231F20" stroke-width="2.5" stroke-miterlimit="10" d="
				M378.074,455.232l-5.889,0.491l148.01,235.597l5.439,4.508"/>
			
				<path id="path3664_9_" sodipodi:nodetypes="cccc" fill="#FFFFFF" stroke="#231F20" stroke-width="2.5" stroke-miterlimit="10" d="
				M326.002,453.071l-9.949-0.223l-96.106,215.432l0.438,13.926"/>
			
				<path id="path3590_9_" sodipodi:nodetypes="ccccc" fill="#FFFFFF" stroke="#231F20" stroke-width="2.5" stroke-miterlimit="10" d="
				M530.217,687.56L399.059,438.114l-20.801,16.876l147.25,240.812C532.15,699.48,535.107,698.49,530.217,687.56z"/>
			
				<path id="path3592_9_" sodipodi:nodetypes="ccccc" fill="#FFFFFF" stroke="#231F20" stroke-width="2.5" stroke-miterlimit="10" d="
				M335.475,466.374l-9.42-12.952L221.501,674.048c-3.623,19.58,4.398,9.213,10.598,3.533L335.475,466.374z"/>
			
				<path id="path3604_9_" sodipodi:nodetypes="ccccc" fill="#FFFFFF" stroke="#231F20" stroke-width="2.5" stroke-miterlimit="10" d="
				M405.688,398.48l-32.827-59.657l-16.284,9.586l32.667,58.944L405.688,398.48L405.688,398.48z"/>
			
				<path id="path3614_9_" sodipodi:nodetypes="ccccc" fill="#FFFFFF" stroke="#231F20" stroke-width="2.5" stroke-miterlimit="10" d="
				M381.663,324.743l5.627,10.772l-43.312,23.664l-5.361-10.065L381.663,324.743z"/>
			<g id="g3641_9_" transform="matrix(0.78149766,0.62390818,-0.62390818,0.78149766,162.82895,-105.56244)">
				
					<path id="rect3639_9_" sodipodi:nodetypes="ccccc" fill="#FFFFFF" stroke="#231F20" stroke-width="2.5" stroke-miterlimit="10" d="
					M318.363,250.103l15.239-36.65c-4.362-5.907-8.388-6.199-13.547-5.632l-15.234,36.651L318.363,250.103z"/>
				
					<path id="rect3637_9_" sodipodi:nodetypes="ccccc" fill="#FFFFFF" stroke="#231F20" stroke-width="2.5" stroke-miterlimit="10" d="
					M285.206,284.909c6.207,6.638,12.611,8.567,19.123,7.95l17.222-41.432c-4.414-6.092-9.669-8.865-19.121-7.949L285.206,284.909
					L285.206,284.909z"/>
			</g>
			
				<path id="path3645_9_" sodipodi:nodetypes="ccccc" fill="#FFFFFF" stroke="#231F20" stroke-width="2.5" stroke-miterlimit="10" d="
				M259.302,301.488l-7.23-8.792l-12.844,6.826l4.525,11.299L259.302,301.488z"/>
			<path fill="#FFFFFF" stroke="#231F20" stroke-width="2.5" stroke-miterlimit="10" d="M506.147,253.895
				c-3.413-21.5-10.484-42.743-34.228-62.823c-0.976-1.788-3.198-2.442-4.985-1.468l-200.666,109.33l-2.277-3.486l-26.85,15.436
				l1.22,3.256l-61.726,33.63c-1.787,0.975-2.441,3.195-1.469,4.984c5.313,20.499,14.476,41.278,34.229,62.824
				c0.974,1.788,3.197,2.44,4.984,1.469l115.765-63.073l2.008,3.349l10.183-5.011l-2.331-3.71l41.388-22.549l2.118,3.533
				l9.525-5.278l-1.85-3.591l113.494-61.835C506.467,257.905,507.122,255.682,506.147,253.895z"/>
			
				<path id="path3649_9_" sodipodi:nodetypes="ccccc" fill="#FFFFFF" stroke="#231F20" stroke-width="2.5" stroke-miterlimit="10" d="
				M205.2,359.632l25.742-16.672l10.39,17.139l-28.536,17.245l-8.687-15.743"/>
			<path id="rect3660_9_" fill="#FFFFFF" stroke="#231F20" stroke-width="2.5" stroke-miterlimit="10" d="M302.319,402.884
				l-4.657-10.3c-0.877-1.943-3.164-2.806-5.107-1.929l-3.208,1.451c-1.944,0.878-2.806,3.163-1.928,5.106l4.654,10.3
				c0.878,1.942,3.165,2.806,5.108,1.928l3.208-1.449C302.333,407.113,303.195,404.826,302.319,402.884z"/>
			<path id="rect3662_9_" fill="#FFFFFF" stroke="#231F20" stroke-width="2.5" stroke-miterlimit="10" d="M391.117,444.561
				l-7.277,5.298c-0.377,0.274-0.471,0.809-0.209,1.193l8.418,12.381c0.26,0.385,0.777,0.475,1.154,0.201l7.277-5.299
				c0.377-0.273,0.469-0.809,0.209-1.193l-8.418-12.38C392.01,444.377,391.494,444.286,391.117,444.561z"/>
			
				<path id="path3670_9_" sodipodi:nodetypes="cccc" fill="#FFFFFF" stroke="#231F20" stroke-width="2.5" stroke-miterlimit="10" d="
				M399.082,437.855l-8.561-1.016l-6.096,5.805l6.967,1.379"/>
			<path id="path3676_9_" fill="#FFFFFF" stroke="#231F20" stroke-width="2.5" stroke-miterlimit="10" d="M391.174,444.386
				c-0.508-0.072-8.127-1.813-8.127-1.813l-5.877,6.386l6.459,1.306L391.174,444.386z"/>
			<path id="rect3678_9_" fill="#FFFFFF" stroke="#231F20" stroke-width="2.5" stroke-miterlimit="10" d="M322.736,452.75
				l-4.096-0.032c-0.459-0.004-0.982,0.332-1.172,0.75l-1.969,4.367c-0.188,0.418,0.031,0.76,0.49,0.764l4.096,0.033
				c0.459,0.004,0.984-0.333,1.172-0.751l1.969-4.366C323.414,453.096,323.195,452.754,322.736,452.75z"/>
			
				<path id="path3682_9_" sodipodi:type="arc" sodipodi:ry="7.7541871" sodipodi:cx="317.42142" sodipodi:rx="7.7541871" sodipodi:cy="448.953" fill="#FFFFFF" stroke="#231F20" stroke-width="2.5" stroke-miterlimit="10" d="
				M350.625,393.686c0,2.923,2.367,5.292,5.291,5.292s5.293-2.369,5.293-5.292s-2.369-5.293-5.293-5.293
				S350.625,390.763,350.625,393.686z"/>
			
				<path id="path3684_9_" inkscape:flatsided="true" inkscape:rounded="0" inkscape:randomized="0" sodipodi:r2="5.1099439" sodipodi:sides="6" sodipodi:type="star" sodipodi:cx="311.50156" sodipodi:arg2="1.2690183" sodipodi:arg1="0.74541948" sodipodi:cy="443.86694" sodipodi:r1="5.900455" fill="#FFFFFF" stroke="#231F20" stroke-width="2.5" stroke-miterlimit="10" d="
				M353.014,396.36l3.846,1.197l2.959-2.732l-0.887-3.929l-3.844-1.196l-2.961,2.731L353.014,396.36L353.014,396.36z"/>
			
				<path id="path3686_9_" sodipodi:type="arc" sodipodi:ry="8.0043221" sodipodi:cx="300.49561" sodipodi:rx="8.0043221" sodipodi:cy="414.01749" fill="#FFFFFF" stroke="#231F20" stroke-width="2.5" stroke-miterlimit="10" d="
				M365.349,374.827c-0.566,2.964,1.379,5.825,4.341,6.391c2.966,0.565,5.826-1.377,6.393-4.341
				c0.565-2.965-1.378-5.825-4.343-6.391C368.776,369.921,365.914,371.863,365.349,374.827z"/>
			<path id="rect3690_9_" fill="#FFFFFF" stroke="#231F20" stroke-width="2.5" stroke-miterlimit="10" d="M450.041,453.376
				l-7.062,5.939c-0.387,0.324-0.438,0.901-0.111,1.288l0.295,0.351c0.324,0.387,0.902,0.437,1.289,0.111l7.062-5.939
				c0.387-0.325,0.436-0.902,0.111-1.289l-0.295-0.35C451.004,453.101,450.428,453.05,450.041,453.376z"/>
			<path fill="#FFFFFF" stroke="#231F20" stroke-width="2.5" stroke-miterlimit="10" d="M448.898,457.356l-7.449-13.666
				c-1.371-2.515-4.523-3.442-7.039-2.072l-7.063,3.851l-3.374-6.882c-3.626,0.342-7.058,2.435-10.305,6.201l3.284,6.349
				l-6.077,3.313c-2.516,1.371-3.443,4.522-2.072,7.039l7.45,13.664c1.373,2.517,4.524,3.444,7.038,2.073l23.535-12.831
				C449.344,463.024,450.269,459.872,448.898,457.356z"/>
			<path id="path3694_9_" fill="#FFFFFF" stroke="#231F20" stroke-width="2.5" stroke-miterlimit="10" d="M328.602,404.264
				l-12.507,6.54l2.164,3.907l12.729-6.69L328.602,404.264L328.602,404.264z"/>
			
				<path id="path3720_9_" sodipodi:nodetypes="ccccc" fill="#FFFFFF" stroke="#231F20" stroke-width="2.5" stroke-miterlimit="10" d="
				M393.353,319.696l-40.001-68.933l-8.337,4.413l39.922,69.342L393.353,319.696z"/>
			
				<path id="path3720-9_9_" sodipodi:nodetypes="ccccc" fill="#FFFFFF" stroke="#231F20" stroke-width="2.5" stroke-miterlimit="10" d="
				M335.416,351.094l-39.998-68.931l-8.336,4.41l39.92,69.343L335.416,351.094z"/>
			
				<path id="path3770_9_" sodipodi:nodetypes="ccccc" fill="#FFFFFF" stroke="#231F20" stroke-width="2.5" stroke-miterlimit="10" d="
				M210.327,363.914l21.804-14.352l-1.501-2.461l-22.002,14.271L210.327,363.914z"/>
			
				<path id="path3651_9_" sodipodi:nodetypes="ccccc" fill="#FFFFFF" stroke="#231F20" stroke-width="2.5" stroke-miterlimit="10" d="
				M199.532,360.843l6.858-4.068l7.392,12.182l-7.118,4.412L199.532,360.843L199.532,360.843z"/>
			
				<path id="path3651-4_9_" sodipodi:nodetypes="ccccc" fill="#FFFFFF" stroke="#231F20" stroke-width="2.5" stroke-miterlimit="10" d="
				M232.655,339.102l7.685,12.001l-7.009,4.583l-7.436-12.352L232.655,339.102z"/>
			
				<path id="path3647_9_" sodipodi:nodetypes="ccccc" fill="#FFFFFF" stroke="#231F20" stroke-width="2.5" stroke-miterlimit="10" d="
				M228.382,354.012l-28.308-43.285c-7.067-2.565-11.934,0.319-14.8,8.159c0,0,24.531,41.128,27.978,43.861
				C223.698,367.479,225.318,359.724,228.382,354.012z"/>
			<path id="path3772_9_" sodipodi:nodetypes="cc" fill="#FFFFFF" stroke="#231F20" stroke-width="2.5" stroke-miterlimit="10" d="
				M200.215,310.955c2.85,7.398-10.112,15.029-14.899,7.92"/>
			
				<path id="path3774_9_" sodipodi:type="arc" sodipodi:ry="1.53061" sodipodi:cx="266.51746" sodipodi:rx="3.2525461" sodipodi:cy="125.76917" fill="#FFFFFF" stroke="#231F20" stroke-width="2.5" stroke-miterlimit="10" d="
				M192.124,314.498c-1.006,0.702-1.553,1.653-1.223,2.127c0.331,0.474,1.412,0.289,2.419-0.413
				c1.004-0.701,1.553-1.654,1.221-2.128C194.213,313.611,193.13,313.796,192.124,314.498z"/>
			<path id="path3800_9_" fill="#FFFFFF" stroke="#231F20" stroke-width="2.5" stroke-miterlimit="10" d="M222.687,356.148
				c1.035-1.263,1.845-3.04,2.395-5.255l0.215-0.868l-3.337-5.099c-1.834-2.806-3.364-5.09-3.4-5.078
				c-0.036,0.013-0.198,0.479-0.358,1.035c-0.424,1.47-1.551,3.612-2.404,4.573c-2.351,2.645-5.907,3.668-10.639,3.06
				c-0.699-0.092-1.253-0.106-1.23-0.033c0.066,0.202,4.239,6.652,5.57,8.61l1.193,1.756l1.469,0.206
				C216.984,359.738,220.551,358.754,222.687,356.148L222.687,356.148z"/>
			
				<path id="path3802_9_" sodipodi:type="arc" sodipodi:ry="1.0742477" sodipodi:cx="201.60049" sodipodi:rx="1.0742477" sodipodi:cy="191.35265" fill="#FFFFFF" stroke="#231F20" stroke-width="2.5" stroke-miterlimit="10" d="
				M213.209,374.273c-0.155,0.374,0.022,0.803,0.395,0.957c0.375,0.156,0.804-0.021,0.959-0.395
				c0.156-0.375-0.021-0.803-0.396-0.961C213.794,373.722,213.365,373.898,213.209,374.273z"/>
			
				<path id="path3804_9_" sodipodi:type="arc" sodipodi:ry="1.1637684" sodipodi:cx="236.06593" sodipodi:rx="1.1637684" sodipodi:cy="216.14986" fill="#FFFFFF" stroke="#231F20" stroke-width="2.5" stroke-miterlimit="10" d="
				M237.81,359.024c-0.168,0.405,0.023,0.869,0.429,1.038s0.87-0.023,1.038-0.429c0.169-0.405-0.022-0.87-0.429-1.038
				C238.443,358.427,237.978,358.619,237.81,359.024z"/>
		</g>
	</g>
</g>
<text transform="matrix(1 0 0 1 68.5283 653.9492)" fill="#FFFFFF" stroke="#231F20" stroke-width="2.5" stroke-miterlimit="10" font-family="'Chalkboard-Bold'" font-size="100">Telescope</text>
</svg>
