<?xml version="1.0" encoding="utf-8"?>
<!-- Generator: Adobe Illustrator 16.0.0, SVG Export Plug-In . SVG Version: 6.00 Build 0)  -->
<!DOCTYPE svg PUBLIC "-//W3C//DTD SVG 1.1//EN" "http://www.w3.org/Graphics/SVG/1.1/DTD/svg11.dtd">
<svg version="1.1" id="Layer_1" xmlns="http://www.w3.org/2000/svg" xmlns:xlink="http://www.w3.org/1999/xlink" x="0px" y="0px"
	 width="100%" height="100%" viewBox="0 0 64 32" enable-background="new 0 0 64 32" xml:space="preserve">
<path fill="#F45D81" stroke="#231F20" stroke-linecap="round" stroke-linejoin="round" stroke-miterlimit="10" d="M18.113,5.511
	l0.005,20.977c0,1.824,1.933,3.305,4.316,3.305h21.324c2.386,0,4.315-1.479,4.321-3.305v-4.324V9.881v-4.37
	c0-1.827-1.934-3.307-4.318-3.306L22.435,2.205C20.049,2.205,18.117,3.683,18.113,5.511z"/>
<path fill="#EABD8C" stroke="#231F20" stroke-linecap="round" stroke-linejoin="round" stroke-miterlimit="10" d="M-23.047,2.205
	l-6.534,3.525L-49.726,16.6l20.042,9.918l6.637,3.283l3.395,0.001c5.924,0.005,17.18-0.009,17.18-0.009V2.203h-20.574V2.205z"/>
<polygon fill="#221F1F" stroke="#231F20" stroke-linecap="round" stroke-linejoin="round" stroke-miterlimit="10" points="
	-40.417,11.576 -49.726,16.6 -40.416,21.207 "/>
<path id="pencil-eraser" fill="#E8BF15" stroke="#231F20" stroke-linecap="round" stroke-linejoin="round" stroke-miterlimit="10" d="M-8.646,2.205
	h-14.389c0.002,0,0.004,0,0.005,0.001h-0.017v0.127c0.094-0.021,0.189-0.039,0.287-0.052c1.34,0.452,2.328,1.962,2.328,3.761
	c0,1.928-1.13,3.519-2.615,3.839h0.342c-0.129,0.051-0.254,0.092-0.342,0.071c2.65,0.114,3.494,3.835,3.494,6.131
	c0,2.311-0.821,5.812-3.338,6.029c0.121,0.008,0.238,0.025,0.355,0.049h-0.5c1.479,0.326,2.604,1.904,2.604,3.814
	c0,1.916-1.131,3.498-2.615,3.816h0.541l0,0H27.5l0.001-27.59L-8.646,2.205z"/>
<polygon fill="#F0F1F1" stroke="#231F20" stroke-linecap="round" stroke-linejoin="round" stroke-miterlimit="10" points="
	26.961,2.203 26.961,29.793 33.289,29.793 33.287,22.164 33.289,22.164 33.289,9.881 33.286,9.881 33.285,2.206 "/>
<path opacity="0.15" fill="#231F20" d="M-23.047,29.795l5.039,0.002v-0.01h40.436c0.002,0,0.004,0,0.007,0h21.324
	c2.386,0,4.315-1.479,4.321-3.305v-4.324H33.287h-6.326h-44.969v-0.039h-5.039l-7.194-1.489l-19.484-4.035l20.042,9.918
	L-23.047,29.795z"/>
<path opacity="0.15" fill="#231F20" d="M22.435,2.199c-0.011,0-0.02,0.001-0.028,0.002l-40.414-0.002V2.198l-5.039,0.001
	l-6.534,3.526l-20.145,10.87l19.526-4.918l7.152-1.8h5.039h36.122h8.845h0.002h6.325H48.08v-4.37c0-1.827-1.934-3.307-4.318-3.305
	L31.875,2.2l-4.914-0.002v0.001H22.435z"/>
</svg>
