<?xml version="1.0" encoding="utf-8"?>
<!-- Generator: Adobe Illustrator 16.0.0, SVG Export Plug-In . SVG Version: 6.00 Build 0)  -->
<!DOCTYPE svg PUBLIC "-//W3C//DTD SVG 1.1//EN" "http://www.w3.org/Graphics/SVG/1.1/DTD/svg11.dtd">
<svg version="1.1" id="Layer_1" xmlns="http://www.w3.org/2000/svg" xmlns:xlink="http://www.w3.org/1999/xlink" x="0px" y="0px"
	 width="100%" height="100%" viewBox="0 0 64 64" enable-background="new 0 0 64 64" xml:space="preserve">
<g>
	<path fill="#F5CD2D" stroke="#000000" stroke-linecap="round" stroke-linejoin="round" stroke-miterlimit="10" d="M47.443,31.248
		c-0.028-8.419-6.877-15.217-15.292-15.189c-8.42,0.028-15.222,6.876-15.193,15.292c0.015,4.472,1.956,8.489,5.033,11.267h-0.115
		c1.949,2.323,3.135,5.306,3.171,8.569l14.293-0.049c0.013-3.219,1.147-6.171,3.033-8.492
		C45.497,39.844,47.458,35.777,47.443,31.248z"/>
	<path fill="#21464F" stroke="#000000" stroke-linecap="round" stroke-linejoin="round" stroke-miterlimit="10" d="M38.952,50.754
		l-13.625,0.047c-0.384,0-0.692,0.312-0.692,0.695l0.017,5.195c0.003,0.382,0.315,0.688,0.696,0.688l2.501-0.008l1.3,2.234
		l6.041-0.02l1.283-2.247l2.502-0.009c0.383,0.001,0.691-0.311,0.689-0.691l-0.016-5.195C39.646,51.062,39.334,50.753,38.952,50.754
		z"/>
</g>
<g>
	<path fill="#F5CD2D" stroke="#000000" stroke-miterlimit="10" d="M32.146,13.42c1.154,0,2.086-0.934,2.086-2.086V6.48
		c0-1.153-0.933-2.086-2.086-2.086c-1.153,0-2.085,0.934-2.085,2.086v4.854C30.061,12.486,30.994,13.42,32.146,13.42z"/>
	<path fill="#F5CD2D" stroke="#000000" stroke-miterlimit="10" d="M18.456,16.459c0.41,0.562,1.046,0.861,1.692,0.861
		c0.424,0,0.853-0.129,1.224-0.398c0.931-0.677,1.139-1.981,0.462-2.914l-2.852-3.927c-0.678-0.931-1.98-1.141-2.915-0.463
		c-0.931,0.677-1.139,1.981-0.462,2.914L18.456,16.459z"/>
	<path fill="#F5CD2D" stroke="#000000" stroke-miterlimit="10" d="M45.834,47.042c-0.677-0.933-1.98-1.138-2.914-0.462
		c-0.93,0.678-1.138,1.982-0.459,2.914l2.854,3.929c0.408,0.562,1.043,0.859,1.689,0.859c0.426,0,0.854-0.13,1.225-0.398
		c0.931-0.677,1.139-1.981,0.461-2.914L45.834,47.042z"/>
	<path fill="#F5CD2D" stroke="#000000" stroke-miterlimit="10" d="M13.376,23.458l-4.617-1.501C7.653,21.6,6.486,22.2,6.129,23.296
		c-0.357,1.095,0.243,2.272,1.338,2.629l4.617,1.501c0.216,0.069,0.432,0.103,0.646,0.103c0.88,0,1.697-0.561,1.984-1.443
		C15.071,24.992,14.472,23.814,13.376,23.458z"/>
	<path fill="#F5CD2D" stroke="#000000" stroke-miterlimit="10" d="M56.824,37.576l-4.615-1.5c-1.098-0.354-2.271,0.244-2.629,1.34
		s0.244,2.271,1.34,2.629l4.618,1.499c0.213,0.07,0.429,0.103,0.644,0.103c0.879,0,1.695-0.561,1.983-1.44
		C58.521,39.107,57.921,37.932,56.824,37.576z"/>
	<path fill="#F5CD2D" stroke="#000000" stroke-miterlimit="10" d="M12.086,36.076l-4.619,1.497c-1.096,0.356-1.697,1.532-1.34,2.629
		c0.285,0.883,1.103,1.442,1.983,1.442c0.212,0,0.431-0.033,0.645-0.103l4.618-1.498c1.097-0.354,1.698-1.532,1.341-2.628
		C14.36,36.322,13.192,35.723,12.086,36.076z"/>
	<path fill="#F5CD2D" stroke="#000000" stroke-miterlimit="10" d="M51.564,27.529c0.215,0,0.43-0.034,0.645-0.103l4.615-1.5
		c1.097-0.356,1.697-1.533,1.341-2.629c-0.356-1.095-1.538-1.694-2.627-1.34l-4.618,1.5c-1.096,0.356-1.695,1.534-1.34,2.629
		C49.867,26.968,50.686,27.529,51.564,27.529z"/>
	<path fill="#F5CD2D" stroke="#000000" stroke-miterlimit="10" d="M18.459,47.041l-2.856,3.926
		c-0.678,0.932-0.472,2.237,0.461,2.914c0.369,0.27,0.798,0.399,1.223,0.399c0.646,0,1.282-0.298,1.689-0.859l2.857-3.925
		c0.678-0.934,0.472-2.237-0.461-2.915C20.443,45.9,19.133,46.109,18.459,47.041z"/>
	<path fill="#F5CD2D" stroke="#000000" stroke-miterlimit="10" d="M45.312,10.081l-2.853,3.927
		c-0.677,0.933-0.469,2.237,0.462,2.914c0.37,0.269,0.801,0.398,1.225,0.398c0.646,0,1.281-0.298,1.69-0.861l2.853-3.928
		c0.677-0.932,0.469-2.237-0.463-2.914C47.29,8.938,45.99,9.148,45.312,10.081z"/>
</g>
</svg>
