<?xml version="1.0" encoding="utf-8"?>
<!-- Generator: Adobe Illustrator 16.0.0, SVG Export Plug-In . SVG Version: 6.00 Build 0)  -->
<!DOCTYPE svg PUBLIC "-//W3C//DTD SVG 1.1//EN" "http://www.w3.org/Graphics/SVG/1.1/DTD/svg11.dtd">
<svg version="1.1" id="Layer_1" xmlns="http://www.w3.org/2000/svg" xmlns:xlink="http://www.w3.org/1999/xlink" x="0px" y="0px"
	 width="100%" height="100%" viewBox="48 64 64 32" enable-background="new 48 64 64 32" xml:space="preserve">
<path fill="#F45D81" stroke="#231F20" stroke-linecap="round" stroke-linejoin="round" stroke-miterlimit="10" d="M38.891,90.285
	l-0.005-20.977c0-1.824-1.933-3.305-4.316-3.305H13.246c-2.386,0-4.315,1.478-4.321,3.304v4.324v12.282v4.371
	c0,1.826,1.934,3.307,4.318,3.305l21.327,0.002C36.956,93.592,38.887,92.113,38.891,90.285z"/>
<path fill="#EABD8C" stroke="#231F20" stroke-linecap="round" stroke-linejoin="round" stroke-miterlimit="10" d="M80.051,93.592
	l6.535-3.525l20.145-10.87l-20.043-9.917l-6.636-3.283l-3.395-0.001c-5.924-0.005-17.18,0.009-17.18,0.009v27.59h20.574V93.592z"/>
<polygon id="pencil-tip" fill="#221F1F" stroke="#231F20" stroke-linecap="round" stroke-linejoin="round" stroke-miterlimit="10" points="
	97.422,84.22 106.73,79.196 97.42,74.589 "/>
<path id="pencil" fill="#E8BF15" stroke="#231F20" stroke-linecap="round" stroke-linejoin="round" stroke-miterlimit="10" d="M65.651,93.592
	H80.04c-0.002,0-0.004-0.001-0.005-0.002h0.017v-0.127c-0.094,0.021-0.189,0.039-0.287,0.053c-1.34-0.453-2.328-1.963-2.328-3.762
	c0-1.928,1.13-3.52,2.615-3.84h-0.342c0.129-0.051,0.254-0.092,0.342-0.07c-2.65-0.114-3.494-3.836-3.494-6.132
	c0-2.311,0.821-5.811,3.338-6.029c-0.121-0.008-0.238-0.025-0.355-0.049h0.5c-1.479-0.326-2.604-1.904-2.604-3.814
	c0-1.916,1.131-3.498,2.615-3.816H79.51l0,0H29.504l-0.001,27.59L65.651,93.592z"/>
<polygon fill="#F0F1F1" stroke="#231F20" stroke-linecap="round" stroke-linejoin="round" stroke-miterlimit="10" points="
	30.043,93.594 30.043,66.003 23.715,66.003 23.717,73.632 23.715,73.632 23.715,85.914 23.718,85.914 23.719,93.59 "/>
<path opacity="0.15" fill="#231F20" d="M80.051,66.001L75.012,66v0.01H34.577c-0.002,0-0.004,0-0.007,0H13.246
	c-2.386,0-4.315,1.478-4.321,3.304v4.324l14.793,0h6.326h44.969v0.039h5.039l7.195,1.489l19.484,4.035l-20.043-9.917L80.051,66.001z
	"/>
<path opacity="0.15" fill="#231F20" d="M34.57,93.597c0.011,0,0.02-0.001,0.028-0.002l40.414,0.002v0.001l5.039-0.001l6.535-3.526
	l20.145-10.869l-19.527,4.918l-7.152,1.801h-5.039H38.89h-8.845h-0.002h-6.325H8.924v4.369c0,1.827,1.934,3.308,4.318,3.306
	l11.887,0.001l4.914,0.002v-0.001H34.57z"/>
</svg>
