<?xml version="1.0" encoding="utf-8"?>
<!-- Generator: Adobe Illustrator 16.0.0, SVG Export Plug-In . SVG Version: 6.00 Build 0)  -->
<!DOCTYPE svg PUBLIC "-//W3C//DTD SVG 1.1//EN" "http://www.w3.org/Graphics/SVG/1.1/DTD/svg11.dtd">
<svg version="1.1" id="Layer_1" xmlns="http://www.w3.org/2000/svg" xmlns:xlink="http://www.w3.org/1999/xlink" x="0px" y="0px"
	 width="64px" height="64px" viewBox="274 274 64 64" enable-background="new 274 274 64 64" xml:space="preserve">
<g>
	<path fill="#ED6833" stroke="#231F20" stroke-width="2" stroke-miterlimit="10" d="M324.75,334.134
		c-0.003,0.001-0.006,0.003-0.009,0.005c-1.968,1.183-4.523,0.548-5.707-1.421l-9.264-15.402c-1.182-1.966-0.55-4.517,1.411-5.701
		c0.003-0.003,0.006-0.004,0.009-0.007c1.968-1.183,4.521-0.548,5.706,1.42l9.265,15.404
		C327.343,330.397,326.711,332.948,324.75,334.134L324.75,334.134z"/>
	<path fill="#21597C" stroke="#231F20" stroke-width="2" stroke-miterlimit="10" d="M309.912,309.423L309.912,309.423
		c-3.731,2.257-8.11,2.922-12.331,1.874c-8.697-2.16-14.015-10.992-11.857-19.688c1.041-4.198,3.66-7.746,7.369-9.988
		c3.727-2.254,8.103-2.919,12.322-1.873c4.207,1.045,7.761,3.67,10.003,7.393c2.242,3.724,2.902,8.091,1.857,12.299
		C316.234,303.635,313.619,307.181,309.912,309.423L309.912,309.423z"/>
	<g>
		<path fill="none" stroke="#231F20" stroke-width="2" stroke-miterlimit="10" d="M308.905,307.762"/>
	</g>
	<path fill="#9ACBAB" stroke="#231F20" stroke-width="2" stroke-miterlimit="10" d="M295.244,285.179
		c-2.761,1.67-4.709,4.311-5.484,7.432c-1.606,6.472,2.352,13.043,8.823,14.65c3.141,0.778,6.398,0.284,9.176-1.396l0.001,0.001
		c2.76-1.669,4.704-4.307,5.48-7.427c0.777-3.13,0.285-6.38-1.385-9.152c-1.669-2.771-4.313-4.726-7.444-5.502
		C301.274,283.005,298.019,283.501,295.244,285.179L295.244,285.179z"/>
	<g>
		<path fill="#21597C" stroke="#231F20" stroke-width="2" stroke-miterlimit="10" d="M312.363,313.658
			c-0.983,0.592-2.262,0.275-2.854-0.709l-1.876-3.216c-0.591-0.981-0.274-2.257,0.705-2.851c0.001-0.001,0.003-0.001,0.005-0.002
			c0.983-0.592,2.261-0.275,2.853,0.709l1.876,3.216c0.592,0.982,0.275,2.257-0.706,2.85
			C312.366,313.655,312.363,313.657,312.363,313.658z"/>
	</g>
	<g>
		<g>
			<path id="SVGID_1_" fill="none" stroke="#231F20" stroke-width="2" stroke-miterlimit="10" d="M295.244,285.179
				c-2.761,1.67-4.709,4.311-5.484,7.432c-1.606,6.472,2.352,13.043,8.823,14.65c3.141,0.778,6.398,0.284,9.176-1.396l0.001,0.001
				c2.76-1.669,4.704-4.307,5.48-7.427c0.777-3.13,0.285-6.38-1.385-9.152c-1.669-2.771-4.313-4.726-7.444-5.502
				C301.274,283.005,298.019,283.501,295.244,285.179L295.244,285.179z"/>
		</g>
	</g>
</g>
<text transform="matrix(1 0 0 1 293.3599 302.208)" font-family="'Chalkboard-Bold'" font-size="30">-</text>
</svg>
